<svg width="200" height="163" viewBox="0 0 200 163" fill="none" xmlns="http://www.w3.org/2000/svg">
<g id="Layer_1" clip-path="url(#clip0_2527_1336)">
<g id="Group">
<path id="Vector" d="M148.67 21.1172C162.744 52.0547 186.848 40.5579 186.848 40.5579C162.26 42.2338 148.67 21.1172 148.67 21.1172Z" fill="white"/>
<path id="Vector_2" d="M174.746 21.8375C177.237 21.0331 178.624 18.3516 177.822 15.8545C177.036 13.3406 174.362 11.9664 171.854 12.7708C169.364 13.5585 167.976 16.24 168.779 18.7371C169.564 21.251 172.239 22.642 174.729 21.8375H174.746Z" stroke="white" stroke-width="2.16"/>
<path id="Vector_3" d="M87.574 110.98C66.4119 122.008 43.5115 119.343 43.5115 119.343L82.0578 127.957C76.4413 125.242 63.704 121.706 63.704 121.706C70.9085 122.745 89.0951 117.349 103.32 105.299C101.147 105.098 99.2248 104.913 97.7705 104.796C94.5778 107.042 91.1678 109.137 87.5907 111.014L87.574 110.98Z" fill="white"/>
<path id="Vector_4" d="M199.218 3.31848L192.13 4.86033L192.481 -0.0166016C154.804 6.06699 134.027 26.4797 134.027 26.4797C125.903 25.5244 117.879 28.9936 111.143 33.5186L115.222 34.8258C120.353 31.8091 125.702 29.7645 130.466 30.3846C132.004 30.6025 133.492 31.0885 134.879 31.9264C135.682 30.9712 136.517 30.0494 137.37 29.1444C158.198 7.22337 190.091 2.19561 190.091 2.19561L189.974 7.0055L196.844 5.51393C197.747 34.4571 182.168 70.5899 154.052 94.0528C125.936 117.532 88.1757 121.571 88.1757 121.571C96.5502 123.029 118.314 115.924 118.314 115.924C143.588 107.376 171.236 86.9134 186.547 59.6797C201.842 32.446 199.251 3.33524 199.251 3.33524L199.218 3.31848Z" fill="white"/>
<g id="Group_2">
<path id="Vector_5" d="M60.3274 41.4287C60.8121 41.4287 61.3303 41.4287 61.8819 41.4455C62.4336 41.4455 62.9852 41.4958 63.5368 41.5293C64.0717 41.5795 64.5899 41.6466 65.0579 41.7639C65.5259 41.8645 65.9271 42.0153 66.2614 42.2332C66.9969 42.6689 67.6154 43.289 68.1503 44.0767C68.6685 44.8476 68.9192 45.8196 68.9192 46.9592C68.9192 48.1659 68.6351 49.205 68.05 50.0765C67.4817 50.9647 66.6459 51.6183 65.5761 52.0373V52.1043C66.9635 52.406 68.0333 53.0428 68.7688 53.9981C69.5043 54.9701 69.872 56.1601 69.872 57.5343C69.872 58.3723 69.7216 59.1599 69.4207 59.9476C69.1198 60.7353 68.7019 61.4224 68.1002 62.0258C67.5318 62.6291 66.8131 63.0984 65.9606 63.4838C65.0913 63.8525 64.1218 64.0369 63.0019 64.0369H52.1033V41.4287H60.2939H60.3274ZM61.1464 51.1658C62.8514 51.1658 64.0717 50.8474 64.8239 50.2441C65.5594 49.6407 65.9438 48.7357 65.9438 47.5458C65.9438 46.7581 65.8101 46.1213 65.5594 45.652C65.3087 45.1995 64.9576 44.8308 64.523 44.5794C64.0884 44.3281 63.5702 44.1605 62.9852 44.0934C62.4168 44.0264 61.7984 43.9761 61.1464 43.9761H55.1455V51.1826H61.1464V51.1658ZM62.6676 61.5062C63.9881 61.5062 65.0245 61.1543 65.7767 60.4169C66.5289 59.713 66.8966 58.7242 66.8966 57.4505C66.8966 56.7131 66.7629 56.1098 66.4787 55.607C66.2113 55.1377 65.8435 54.7523 65.3922 54.4506C64.9409 54.1825 64.4227 53.9646 63.8377 53.864C63.2526 53.7467 62.6341 53.6797 61.9989 53.6797H55.1455V61.5062H62.6676Z" fill="white"/>
<path id="Vector_6" d="M84.3813 41.4289C86.5376 41.4289 88.2092 41.9652 89.4127 43.0042C90.633 44.0601 91.2347 45.5014 91.2347 47.3449C91.2347 48.7191 90.9171 49.9258 90.2987 50.9481C89.6802 51.9872 88.6772 52.6911 87.3066 53.0765V53.1435C87.9585 53.2609 88.4934 53.4787 88.9113 53.7636C89.3124 54.0486 89.6467 54.4005 89.8808 54.8195C90.1315 55.2385 90.2987 55.6909 90.4324 56.1937C90.5494 56.7133 90.633 57.2328 90.6998 57.7691C90.7333 58.3221 90.7667 58.892 90.8001 59.4618C90.8336 60.0316 90.8837 60.5846 90.9673 61.1377C91.0676 61.6907 91.1679 62.2103 91.335 62.7131C91.4855 63.2158 91.7195 63.6348 92.0538 64.0203H88.7107C88.4934 63.7856 88.3596 63.4672 88.2761 63.0818C88.2092 62.6795 88.1591 62.227 88.1423 61.7243C88.1256 61.2215 88.1089 60.702 88.0755 60.1154C88.0588 59.5456 87.9919 58.9925 87.8916 58.4395C87.808 57.9032 87.7077 57.3669 87.5573 56.8641C87.4403 56.3781 87.2397 55.9423 86.9722 55.5736C86.7048 55.2049 86.337 54.9033 85.9024 54.6854C85.4511 54.4675 84.8661 54.3502 84.1306 54.3502H76.8091V64.0203H73.8003V41.4121H84.4147L84.3813 41.4289ZM85.0165 51.6855C85.6517 51.5849 86.2033 51.3838 86.6714 51.0822C87.1394 50.7805 87.5239 50.3615 87.808 49.842C88.0922 49.3225 88.2426 48.6521 88.2426 47.8309C88.2426 46.6913 87.925 45.7527 87.2898 45.0489C86.6546 44.3282 85.635 43.9595 84.2309 43.9595H76.7757V51.8363H83.0273C83.7294 51.8363 84.3813 51.7861 85.0165 51.6855Z" fill="white"/>
<path id="Vector_7" d="M104.858 41.4287L113.667 64.0369H110.341L107.883 57.2159H98.3388L95.798 64.0369H92.739L101.531 41.4287H104.841H104.858ZM106.947 54.702L103.186 44.1605H103.119L99.3083 54.702H106.947Z" fill="white"/>
<path id="Vector_8" d="M129.513 44.6134C128.36 43.809 127.006 43.4068 125.418 43.4068C124.064 43.4068 122.928 43.6582 121.975 44.1777C121.005 44.6637 120.22 45.3508 119.601 46.2056C118.983 47.0603 118.531 48.0491 118.23 49.1384C117.93 50.2445 117.796 51.3674 117.796 52.5573C117.796 53.8478 117.93 55.0544 118.23 56.2108C118.515 57.3672 118.983 58.3727 119.601 59.2107C120.22 60.0822 121.022 60.7525 121.991 61.2553C122.961 61.7749 124.114 62.0262 125.452 62.0262C126.455 62.0262 127.324 61.8587 128.093 61.5235C128.862 61.205 129.53 60.7526 130.082 60.166C130.65 59.5794 131.068 58.8923 131.402 58.0878C131.72 57.2834 131.904 56.4119 131.971 55.4902H134.98C134.679 58.356 133.709 60.5682 132.038 62.1436C130.366 63.7357 128.093 64.5234 125.201 64.5234C123.462 64.5234 121.925 64.2385 120.637 63.6184C119.334 63.015 118.247 62.1771 117.378 61.138C116.525 60.0989 115.874 58.842 115.439 57.4007C115.004 55.9594 114.787 54.4343 114.787 52.7752C114.787 51.116 115.021 49.5909 115.489 48.1329C115.94 46.6916 116.626 45.4346 117.512 44.362C118.414 43.2727 119.534 42.4347 120.871 41.8147C122.209 41.1778 123.73 40.8594 125.468 40.8594C126.655 40.8594 127.758 41.027 128.811 41.3454C129.865 41.6638 130.801 42.1163 131.62 42.7532C132.455 43.3565 133.124 44.1274 133.676 45.0492C134.227 45.9709 134.578 47.0268 134.745 48.2334H131.753C131.402 46.6245 130.684 45.4179 129.53 44.6134H129.513Z" fill="white"/>
<path id="Vector_9" d="M0.38501 73.9758H3.31025V72.4842C3.31025 71.3614 3.44398 70.4564 3.72814 69.7525C3.99559 69.0486 4.36334 68.5123 4.81466 68.1268C5.2827 67.7414 5.80089 67.49 6.38593 67.3727C6.97098 67.2554 7.58946 67.2051 8.22466 67.2051C9.49505 67.2051 10.4144 67.2721 10.9827 67.4229V70.5066C10.732 70.4228 10.4646 70.3726 10.1637 70.3391C9.87951 70.3055 9.54519 70.2888 9.14402 70.2888C8.62583 70.2888 8.15779 70.4061 7.77333 70.6575C7.38887 70.9089 7.205 71.4116 7.205 72.149V73.9758H10.5481V76.9087H7.205V91.8411H3.31025V76.9087H0.38501V73.9758Z" fill="white"/>
<path id="Vector_10" d="M15.7802 67.1885H19.7083V70.909H15.7802V67.1885ZM15.7802 73.9927H19.7083V91.858H15.7802V73.9927Z" fill="white"/>
<path id="Vector_11" d="M26.9462 86.1088C27.0632 87.2484 27.4978 88.0696 28.2667 88.5221C29.0189 88.9746 29.9215 89.226 30.9913 89.226C31.3591 89.226 31.777 89.1925 32.245 89.1422C32.7298 89.0752 33.1644 88.9746 33.5823 88.807C33.9835 88.6562 34.3345 88.4215 34.6019 88.1031C34.8694 87.8015 34.9864 87.3825 34.953 86.8797C34.9362 86.3769 34.7524 85.9579 34.4013 85.6395C34.067 85.3043 33.6157 85.0362 33.0808 84.8518C32.5459 84.6507 31.9274 84.4999 31.2421 84.3658C30.54 84.2317 29.8547 84.0809 29.1359 83.9133C28.4004 83.7625 27.6984 83.5614 27.013 83.3268C26.3444 83.0921 25.7259 82.7737 25.191 82.405C24.6561 82.0028 24.2215 81.5 23.9039 80.8967C23.5863 80.2933 23.4192 79.5392 23.4192 78.6342C23.4192 77.6789 23.6532 76.8577 24.1379 76.2041C24.606 75.5505 25.2077 75.0142 25.9265 74.612C26.6453 74.2097 27.4643 73.9248 28.3336 73.7572C29.2195 73.5897 30.072 73.5059 30.8743 73.5059C31.7937 73.5059 32.6629 73.6064 33.5154 73.8075C34.3512 73.9919 35.1034 74.3103 35.7887 74.7628C36.4741 75.1985 37.0257 75.7683 37.477 76.4555C37.9284 77.1594 38.1958 78.0141 38.3295 79.0029H34.2342C34.0336 78.0476 33.6157 77.4275 32.9304 77.1091C32.245 76.7739 31.4761 76.6231 30.6069 76.6231C30.3394 76.6231 30.0051 76.6566 29.6207 76.7069C29.2529 76.7404 28.8852 76.8242 28.5676 76.9415C28.2333 77.0756 27.9491 77.2599 27.7318 77.4946C27.4978 77.7459 27.3808 78.0476 27.3808 78.4498C27.3808 78.9358 27.5479 79.3213 27.8822 79.623C28.2165 79.9246 28.6512 80.1593 29.1861 80.3771C29.7377 80.5782 30.3394 80.7291 31.0415 80.8799C31.7268 81.014 32.4456 81.1648 33.1811 81.3156C33.8999 81.4832 34.6019 81.6844 35.2873 81.919C35.9726 82.1368 36.5911 82.4553 37.1427 82.8407C37.6943 83.243 38.1289 83.729 38.4633 84.3323C38.7976 84.9356 38.9647 85.6563 38.9647 86.5445C38.9647 87.5836 38.7307 88.5053 38.2459 89.2427C37.7612 89.9802 37.126 90.5667 36.3571 91.0192C35.5882 91.4885 34.7189 91.8237 33.7829 92.0248C32.8468 92.2426 31.9107 92.3432 30.9913 92.3432C29.8714 92.3432 28.8183 92.2091 27.8655 91.9577C26.9127 91.7064 26.0769 91.3209 25.3749 90.8014C24.6895 90.2818 24.1212 89.645 23.72 88.8573C23.3189 88.0864 23.1016 87.1814 23.0848 86.1255H26.9963L26.9462 86.1088Z" fill="white"/>
<path id="Vector_12" d="M41.8733 67.1885H45.8015V76.339H45.8683C46.3531 75.5346 47.0719 74.8642 48.0247 74.3279C48.9774 73.7748 50.0473 73.5067 51.2173 73.5067C53.1731 73.5067 54.7109 74.0095 55.8309 75.0318C56.9675 76.0373 57.5192 77.5624 57.5192 79.5903V91.858H53.591V80.6294C53.5575 79.2216 53.2399 78.1993 52.6883 77.5792C52.1367 76.9423 51.2675 76.6239 50.0974 76.6239C49.4288 76.6239 48.8437 76.7412 48.3088 76.9759C47.7739 77.2272 47.3226 77.5624 46.9716 77.9814C46.6038 78.4171 46.3197 78.9199 46.1024 79.4897C45.9018 80.0595 45.8015 80.6796 45.8015 81.3165V91.858H41.8733V67.2052V67.1885Z" fill="white"/>
<path id="Vector_13" d="M64.7236 83.9302C64.7236 84.6174 64.8239 85.2877 65.0077 85.9246C65.2083 86.5782 65.5092 87.148 65.8937 87.634C66.2781 88.1033 66.7796 88.5055 67.3814 88.7904C67.9664 89.0753 68.6852 89.2262 69.5043 89.2262C70.6576 89.2262 71.577 88.9748 72.2791 88.472C72.9811 87.986 73.4993 87.2318 73.8336 86.243H77.5445C77.3439 87.1983 76.9929 88.053 76.4914 88.8239C75.9732 89.5781 75.3715 90.2149 74.6527 90.7345C73.9339 91.254 73.1483 91.6395 72.2623 91.9076C71.3764 92.1758 70.4571 92.3098 69.4875 92.3098C68.0834 92.3098 66.8465 92.0752 65.7767 91.6227C64.6901 91.1702 63.7875 90.5166 63.0353 89.6954C62.2998 88.8574 61.7315 87.8687 61.347 86.7123C60.9626 85.5559 60.7787 84.2989 60.7787 82.9079C60.7787 81.651 60.9793 80.4443 61.3805 79.3215C61.7983 78.1818 62.35 77.1595 63.1022 76.3048C63.8544 75.4501 64.7403 74.7462 65.7934 74.2602C66.8465 73.7574 68.0333 73.4893 69.3705 73.4893C70.7914 73.4893 72.0283 73.7909 73.1483 74.3607C74.2682 74.9473 75.1876 75.735 75.9231 76.707C76.6586 77.6791 77.1935 78.7852 77.5278 80.0421C77.8454 81.299 77.9457 82.5895 77.7785 83.9302H64.6902H64.7236ZM73.8838 81.3326C73.8503 80.7292 73.6999 80.1259 73.4826 79.5393C73.2653 78.9695 72.9644 78.4667 72.5799 78.031C72.2122 77.612 71.7442 77.2601 71.1925 77.0087C70.6576 76.7405 70.0559 76.6065 69.3872 76.6065C68.7186 76.6065 68.0667 76.7238 67.5151 76.9584C66.9468 77.2098 66.462 77.545 66.0608 77.964C65.6597 78.3997 65.3421 78.9025 65.0913 79.4723C64.8406 80.0421 64.7069 80.679 64.6902 81.3158H73.8503L73.8838 81.3326Z" fill="white"/>
<path id="Vector_14" d="M80.8041 73.9753H84.4982V77.4277H84.5651C84.6821 76.9584 84.9161 76.4724 85.2504 76.0199C85.5848 75.5506 85.9859 75.1484 86.454 74.763C86.922 74.3775 87.4402 74.0758 88.0085 73.8412C88.5936 73.6066 89.1619 73.4893 89.7637 73.4893C90.215 73.4893 90.5326 73.4893 90.7165 73.5228C90.8836 73.5563 91.0675 73.5731 91.2514 73.5898V77.3942C90.9839 77.3439 90.6997 77.3104 90.3989 77.2768C90.1147 77.2433 89.8305 77.2266 89.5631 77.2266C88.8945 77.2266 88.276 77.3439 87.6909 77.612C87.1059 77.8969 86.6044 78.2824 86.1531 78.7852C85.7185 79.3047 85.3842 79.9416 85.1167 80.7125C84.8493 81.4666 84.749 82.3381 84.749 83.3437V91.8406H80.8041V73.9753Z" fill="white"/>
<path id="Vector_15" d="M93.0399 67.1885H96.9681V70.909H93.0399V67.1885ZM93.0399 73.9927H96.9681V91.858H93.0399V73.9927Z" fill="white"/>
<path id="Vector_16" d="M104.306 83.9302C104.306 84.6174 104.407 85.2877 104.607 85.9246C104.791 86.5782 105.092 87.148 105.476 87.634C105.861 88.1033 106.362 88.5055 106.964 88.7904C107.566 89.0753 108.285 89.2262 109.104 89.2262C110.257 89.2262 111.176 88.9748 111.879 88.472C112.564 87.986 113.099 87.2318 113.433 86.243H117.161C116.96 87.1983 116.609 88.053 116.091 88.8239C115.589 89.5781 114.971 90.2149 114.269 90.7345C113.567 91.254 112.764 91.6395 111.879 91.9076C110.993 92.1758 110.057 92.3098 109.104 92.3098C107.7 92.3098 106.463 92.0752 105.376 91.6227C104.29 91.1702 103.387 90.5166 102.635 89.6954C101.883 88.8574 101.331 87.8687 100.947 86.7123C100.562 85.5559 100.378 84.2989 100.378 82.9079C100.378 81.651 100.579 80.4443 100.98 79.3215C101.381 78.1818 101.949 77.1595 102.702 76.3048C103.437 75.4501 104.357 74.7462 105.41 74.2602C106.479 73.7574 107.666 73.4893 109.003 73.4893C110.408 73.4893 111.661 73.7909 112.781 74.3607C113.901 74.9473 114.821 75.735 115.556 76.707C116.291 77.6791 116.81 78.7852 117.144 80.0421C117.478 81.299 117.562 82.5895 117.395 83.9302H104.306ZM113.483 81.3326C113.433 80.7292 113.299 80.1259 113.082 79.5393C112.865 78.9695 112.581 78.4667 112.196 78.031C111.812 77.612 111.36 77.2601 110.825 77.0087C110.274 76.7405 109.672 76.6065 109.02 76.6065C108.368 76.6065 107.7 76.7238 107.148 76.9584C106.58 77.2098 106.095 77.545 105.694 77.964C105.293 78.3997 104.975 78.9025 104.724 79.4723C104.49 80.0421 104.357 80.679 104.323 81.3158H113.5L113.483 81.3326Z" fill="white"/>
<path id="Vector_17" d="M123.362 86.1088C123.479 87.2484 123.914 88.0696 124.683 88.5221C125.435 88.9746 126.338 89.226 127.407 89.226C127.775 89.226 128.193 89.1925 128.661 89.1422C129.146 89.0752 129.58 88.9746 129.998 88.807C130.399 88.6562 130.75 88.4215 131.001 88.1031C131.269 87.8015 131.386 87.3825 131.369 86.8797C131.336 86.3769 131.168 85.9579 130.817 85.6395C130.483 85.3043 130.015 85.0362 129.48 84.8518C128.945 84.6507 128.327 84.4999 127.641 84.3658C126.956 84.2317 126.254 84.0809 125.535 83.9133C124.8 83.7625 124.098 83.5614 123.412 83.3268C122.744 83.0921 122.125 82.7737 121.59 82.405C121.055 82.0028 120.621 81.5 120.303 80.8967C119.969 80.2933 119.818 79.5392 119.818 78.6342C119.818 77.6789 120.052 76.8577 120.52 76.2041C120.989 75.5505 121.59 75.0142 122.309 74.612C123.028 74.2097 123.83 73.9248 124.716 73.7572C125.585 73.5897 126.438 73.5059 127.257 73.5059C128.176 73.5059 129.045 73.6064 129.898 73.8075C130.734 73.9919 131.503 74.3103 132.171 74.7628C132.857 75.1985 133.408 75.7683 133.86 76.4555C134.294 77.1594 134.578 78.0141 134.712 79.0029H130.617C130.433 78.0476 129.998 77.4275 129.313 77.1091C128.644 76.7739 127.859 76.6231 126.989 76.6231C126.722 76.6231 126.388 76.6566 126.02 76.7069C125.635 76.7404 125.284 76.8242 124.95 76.9415C124.616 77.0756 124.332 77.2599 124.098 77.4946C123.864 77.7459 123.763 78.0476 123.763 78.4498C123.763 78.9358 123.93 79.3213 124.265 79.623C124.616 79.9246 125.034 80.1593 125.585 80.3771C126.137 80.5782 126.739 80.7291 127.441 80.8799C128.126 81.014 128.845 81.1648 129.597 81.3156C130.299 81.4832 131.001 81.6844 131.703 81.919C132.389 82.1368 133.007 82.4553 133.542 82.8407C134.077 83.243 134.511 83.729 134.846 84.3323C135.18 84.9356 135.347 85.6563 135.347 86.5445C135.347 87.5836 135.113 88.5053 134.628 89.2427C134.144 89.9802 133.525 90.5667 132.74 91.0192C131.971 91.4885 131.118 91.8237 130.165 92.0248C129.229 92.2426 128.293 92.3432 127.374 92.3432C126.237 92.3432 125.201 92.2091 124.248 91.9577C123.279 91.7064 122.459 91.3209 121.757 90.8014C121.055 90.2818 120.504 89.645 120.103 88.8573C119.701 88.0864 119.484 87.1814 119.451 86.1255H123.379L123.362 86.1088Z" fill="white"/>
</g>
</g>
<g id="Group_3">
<path id="Vector_18" d="M1.40464 154.286C1.55508 153.984 1.75567 153.733 2.0064 153.532C2.25714 153.331 2.55802 153.197 2.90905 153.096C3.24336 152.995 3.62782 152.962 4.04571 152.962C4.36331 152.962 4.68091 152.995 4.98179 153.046C5.29939 153.113 5.58355 153.213 5.83429 153.381C6.08502 153.548 6.28561 153.783 6.45277 154.085C6.60321 154.386 6.68679 154.772 6.68679 155.258V159.079C6.68679 159.431 6.85394 159.599 7.20497 159.599C7.30527 159.599 7.40556 159.599 7.48914 159.548V160.286C7.38884 160.286 7.28855 160.319 7.22169 160.319C7.13811 160.319 7.03782 160.319 6.92081 160.319C6.7035 160.319 6.51963 160.286 6.3859 160.235C6.25218 160.168 6.15189 160.085 6.06831 159.984C6.00144 159.867 5.9513 159.749 5.91787 159.582C5.90115 159.431 5.88443 159.263 5.88443 159.079H5.851C5.70056 159.314 5.53341 159.515 5.36625 159.699C5.19909 159.883 5.01522 160.034 4.83135 160.152C4.63076 160.269 4.41346 160.369 4.14601 160.437C3.89527 160.504 3.59439 160.537 3.24336 160.537C2.90905 160.537 2.59145 160.504 2.30728 160.42C2.02312 160.336 1.75567 160.219 1.53836 160.051C1.32106 159.883 1.1539 159.666 1.02018 159.397C0.903166 159.129 0.836304 158.828 0.836304 158.459C0.836304 157.956 0.953313 157.571 1.17062 157.286C1.38792 157.001 1.6888 156.783 2.05655 156.649C2.42429 156.498 2.84218 156.398 3.29351 156.331C3.74483 156.263 4.21287 156.213 4.69762 156.163C4.88149 156.146 5.04865 156.113 5.18238 156.096C5.3161 156.062 5.43311 156.029 5.53341 155.945C5.6337 155.878 5.70056 155.777 5.75071 155.66C5.80086 155.543 5.83429 155.375 5.83429 155.191C5.83429 154.889 5.78414 154.655 5.68385 154.453C5.58355 154.269 5.44983 154.118 5.28267 154.001C5.11551 153.884 4.91493 153.817 4.68091 153.766C4.44689 153.716 4.21287 153.699 3.94542 153.699C3.3938 153.699 2.94248 153.833 2.59145 154.102C2.24042 154.37 2.05655 154.789 2.03983 155.375H1.13719C1.17062 154.956 1.2542 154.604 1.40464 154.286ZM5.78414 156.431C5.73399 156.532 5.61698 156.615 5.46654 156.649C5.3161 156.699 5.16566 156.733 5.04865 156.749C4.68091 156.817 4.29645 156.867 3.89527 156.917C3.49409 156.967 3.14307 157.051 2.82547 157.152C2.50787 157.252 2.24042 157.403 2.02312 157.587C1.80581 157.772 1.70552 158.057 1.70552 158.409C1.70552 158.627 1.75567 158.828 1.83924 158.995C1.92282 159.163 2.03983 159.314 2.19027 159.448C2.34071 159.565 2.50787 159.666 2.70846 159.733C2.90905 159.8 3.10963 159.833 3.31022 159.833C3.64454 159.833 3.96213 159.783 4.26302 159.682C4.5639 159.582 4.83135 159.431 5.06537 159.23C5.29939 159.029 5.46654 158.794 5.60027 158.526C5.73399 158.241 5.80086 157.939 5.80086 157.587V156.448H5.76743L5.78414 156.431Z" fill="white"/>
<path id="Vector_19" d="M16.8834 150.414C17.3013 150.414 17.7025 150.465 18.0869 150.532C18.4714 150.615 18.8057 150.749 19.1066 150.934C19.3907 151.118 19.6248 151.37 19.8086 151.688C19.9925 152.006 20.0761 152.392 20.0761 152.844C20.0761 153.112 20.0426 153.364 19.9591 153.598C19.8755 153.85 19.7585 154.068 19.608 154.269C19.4576 154.47 19.2737 154.638 19.0731 154.772C18.8725 154.906 18.6385 155.006 18.3711 155.057V155.09C19.0063 155.174 19.5245 155.442 19.8922 155.878C20.2767 156.313 20.4605 156.867 20.4605 157.52C20.4605 157.671 20.4605 157.855 20.4271 158.056C20.3937 158.258 20.3435 158.459 20.2599 158.677C20.1764 158.894 20.0594 159.095 19.8922 159.297C19.7418 159.498 19.5245 159.682 19.257 159.833C18.9896 159.984 18.672 160.118 18.2875 160.202C17.903 160.302 17.435 160.352 16.9001 160.352H12.7045V150.397H16.9001L16.8834 150.414ZM16.8834 154.772C17.2678 154.772 17.5854 154.721 17.8696 154.638C18.1538 154.554 18.3711 154.436 18.5717 154.269C18.7555 154.118 18.8893 153.934 18.9896 153.733C19.0899 153.531 19.1233 153.314 19.1233 153.079C19.1233 151.839 18.3711 151.219 16.8834 151.219H13.6405V154.772H16.8834ZM16.8834 159.548C17.2344 159.548 17.5687 159.514 17.8863 159.464C18.2039 159.397 18.4714 159.297 18.7221 159.129C18.9561 158.978 19.1567 158.76 19.2904 158.492C19.4242 158.224 19.491 157.889 19.491 157.487C19.491 156.85 19.2737 156.364 18.8224 156.045C18.3711 155.727 17.7192 155.559 16.8834 155.559H13.6405V159.531H16.8834V159.548Z" fill="white"/>
<path id="Vector_20" d="M26.5951 150.415C26.9963 150.415 27.3808 150.465 27.7485 150.565C28.1163 150.666 28.4339 150.817 28.7013 151.035C28.9688 151.236 29.1861 151.521 29.3532 151.839C29.5204 152.174 29.6039 152.56 29.6039 152.995C29.6039 153.632 29.4368 154.169 29.1192 154.638C28.8016 155.107 28.3168 155.409 27.6816 155.526V155.56C27.9992 155.61 28.2667 155.694 28.484 155.811C28.7013 155.928 28.8685 156.096 29.0022 156.297C29.1359 156.498 29.2362 156.716 29.2864 156.967C29.3532 157.219 29.3866 157.504 29.4034 157.789C29.4034 157.956 29.4201 158.157 29.4368 158.409C29.4368 158.643 29.4702 158.895 29.4869 159.146C29.5037 159.397 29.5538 159.632 29.6207 159.833C29.6875 160.051 29.7544 160.219 29.8714 160.336H28.835C28.7849 160.235 28.7347 160.135 28.7013 159.984C28.6679 159.85 28.6512 159.716 28.6344 159.565C28.6344 159.414 28.601 159.28 28.601 159.146C28.601 159.012 28.5843 158.895 28.5676 158.777C28.5509 158.425 28.5174 158.073 28.484 157.722C28.4506 157.37 28.3503 157.068 28.2165 156.783C28.0828 156.515 27.8822 156.297 27.6315 156.129C27.3808 155.962 27.0297 155.895 26.5784 155.912H23.0013V160.319H22.0652V150.364H26.6118L26.5951 150.415ZM26.5283 155.141C26.8124 155.141 27.0966 155.09 27.3473 155.007C27.5981 154.923 27.8321 154.789 28.0327 154.621C28.2333 154.454 28.3837 154.252 28.5007 154.018C28.6177 153.783 28.6679 153.515 28.6679 153.213C28.6679 152.593 28.484 152.124 28.133 151.755C27.7819 151.403 27.247 151.219 26.5283 151.219H23.0013V155.141H26.5283Z" fill="white"/>
<path id="Vector_21" d="M35.3876 150.414L39.2824 160.369H38.2627L37.0592 157.269H32.546L31.3591 160.369H30.3562L34.3512 150.414H35.4043H35.3876ZM36.7416 156.464L34.8193 151.369L32.8301 156.464H36.7416Z" fill="white"/>
<path id="Vector_22" d="M47.1387 152.392C46.9548 152.09 46.7208 151.839 46.4367 151.638C46.1692 151.436 45.8683 151.286 45.534 151.168C45.1997 151.068 44.8654 151.001 44.4976 151.001C43.8457 151.001 43.2774 151.135 42.8094 151.369C42.3413 151.621 41.9569 151.956 41.656 152.375C41.3551 152.794 41.1378 153.246 40.9874 153.766C40.8369 154.286 40.77 154.822 40.77 155.375C40.77 155.928 40.8369 156.447 40.9874 156.967C41.1378 157.487 41.3551 157.956 41.656 158.375C41.9569 158.794 42.3413 159.112 42.8094 159.364C43.2774 159.615 43.8457 159.732 44.4976 159.732C44.9657 159.732 45.3836 159.648 45.7513 159.481C46.1191 159.313 46.4367 159.095 46.7041 158.794C46.9716 158.509 47.1889 158.174 47.356 157.788C47.5232 157.403 47.6235 156.984 47.6736 156.548H48.6097C48.5428 157.168 48.4091 157.721 48.1751 158.207C47.9578 158.693 47.6736 159.112 47.3059 159.464C46.9548 159.816 46.537 160.067 46.0689 160.252C45.5842 160.436 45.066 160.537 44.4809 160.537C43.6953 160.537 43.0267 160.403 42.4249 160.118C41.8398 159.833 41.3551 159.447 40.9539 158.978C40.5695 158.509 40.2686 157.956 40.0847 157.336C39.8841 156.716 39.8005 156.062 39.8005 155.375C39.8005 154.688 39.9008 154.034 40.0847 153.414C40.2853 152.794 40.5695 152.241 40.9539 151.755C41.3384 151.269 41.8231 150.9 42.4249 150.615C43.0099 150.33 43.6953 150.196 44.4809 150.196C44.949 150.196 45.417 150.263 45.8683 150.397C46.3196 150.531 46.7208 150.749 47.0886 151.017C47.4563 151.286 47.7572 151.621 48.0079 152.023C48.2587 152.425 48.4091 152.878 48.476 153.397H47.5399C47.4563 153.012 47.3226 152.677 47.122 152.375L47.1387 152.392Z" fill="white"/>
<path id="Vector_23" d="M58.1209 154.571C58.0206 154.37 57.8869 154.202 57.703 154.085C57.5358 153.951 57.3352 153.867 57.1179 153.8C56.9006 153.733 56.6666 153.716 56.4159 153.716C56.2153 153.716 56.0314 153.733 55.8308 153.783C55.6303 153.833 55.4464 153.9 55.2792 153.984C55.1121 154.085 54.9783 154.202 54.878 154.37C54.7778 154.52 54.7276 154.721 54.7276 154.956C54.7276 155.157 54.7778 155.308 54.878 155.442C54.9783 155.576 55.0954 155.694 55.2458 155.794C55.3962 155.878 55.5634 155.962 55.7305 156.029C55.8977 156.096 56.0649 156.129 56.2153 156.18L57.3854 156.448C57.6361 156.481 57.8869 156.548 58.1209 156.649C58.3716 156.749 58.5889 156.867 58.7728 157.034C58.9567 157.185 59.1238 157.386 59.2408 157.621C59.3578 157.855 59.4247 158.124 59.4247 158.442C59.4247 158.827 59.3411 159.163 59.1573 159.431C58.9901 159.699 58.7561 159.934 58.4886 160.101C58.2212 160.269 57.9036 160.403 57.5693 160.47C57.235 160.537 56.8839 160.587 56.5496 160.587C55.7138 160.587 55.0285 160.386 54.4936 159.984C53.9754 159.582 53.6745 158.945 53.5909 158.057H54.4602C54.4936 158.66 54.7109 159.096 55.1121 159.397C55.5132 159.699 55.998 159.85 56.583 159.85C56.8003 159.85 57.0177 159.833 57.235 159.783C57.469 159.732 57.6696 159.649 57.8702 159.548C58.0707 159.431 58.2212 159.297 58.3549 159.129C58.4886 158.962 58.5388 158.744 58.5388 158.492C58.5388 158.274 58.4886 158.107 58.4051 157.956C58.3215 157.805 58.2045 157.688 58.054 157.604C57.9036 157.504 57.7364 157.42 57.5526 157.353C57.3687 157.286 57.1681 157.235 56.9842 157.185L55.8643 156.934C55.5801 156.867 55.3127 156.766 55.0786 156.682C54.8446 156.582 54.6273 156.464 54.4434 156.314C54.2596 156.163 54.1258 155.995 54.0256 155.777C53.9253 155.576 53.8751 155.308 53.8751 155.006C53.8751 154.654 53.9587 154.336 54.1258 154.068C54.293 153.816 54.4936 153.599 54.761 153.448C55.0285 153.28 55.3127 153.18 55.6303 153.096C55.9479 153.029 56.2654 152.979 56.583 152.979C56.9508 152.979 57.2851 153.029 57.586 153.113C57.9036 153.196 58.171 153.347 58.4051 153.548C58.6391 153.749 58.8229 153.984 58.9734 154.269C59.1071 154.554 59.1907 154.889 59.2074 155.291H58.3382C58.3382 155.023 58.2713 154.789 58.171 154.587L58.1209 154.571Z" fill="white"/>
<path id="Vector_24" d="M65.2752 153.264C65.693 153.465 66.0441 153.75 66.345 154.085C66.6291 154.437 66.8464 154.839 66.9969 155.291C67.1473 155.744 67.2142 156.247 67.2142 156.766C67.2142 157.286 67.1473 157.772 66.9969 158.241C66.8464 158.694 66.6291 159.096 66.345 159.448C66.0608 159.783 65.7098 160.068 65.2752 160.269C64.8573 160.47 64.3725 160.571 63.8209 160.571C63.2693 160.571 62.7845 160.47 62.3666 160.269C61.9487 160.068 61.5977 159.8 61.2968 159.448C61.0127 159.096 60.7954 158.694 60.6449 158.241C60.4945 157.772 60.4276 157.286 60.4276 156.766C60.4276 156.247 60.4945 155.761 60.6449 155.291C60.7954 154.839 61.0127 154.437 61.2968 154.085C61.581 153.75 61.932 153.465 62.3666 153.264C62.7845 153.062 63.2693 152.962 63.8209 152.962C64.3725 152.962 64.8573 153.062 65.2752 153.264ZM62.7177 153.967C62.4001 154.135 62.1493 154.37 61.932 154.655C61.7314 154.94 61.5643 155.275 61.464 155.643C61.3637 156.012 61.2968 156.381 61.2968 156.766C61.2968 157.152 61.347 157.52 61.464 157.889C61.5643 158.258 61.7314 158.593 61.932 158.878C62.1326 159.163 62.4001 159.397 62.7177 159.582C63.0353 159.766 63.403 159.85 63.8209 159.85C64.2388 159.85 64.6065 159.766 64.9241 159.582C65.2417 159.397 65.4925 159.18 65.7098 158.878C65.9104 158.593 66.0775 158.258 66.1778 157.889C66.2781 157.52 66.345 157.152 66.345 156.766C66.345 156.381 66.2948 156.012 66.1778 155.643C66.0775 155.275 65.9104 154.956 65.7098 154.655C65.5092 154.37 65.2417 154.135 64.9241 153.967C64.6065 153.783 64.2388 153.699 63.8209 153.699C63.403 153.699 63.0353 153.783 62.7177 153.967Z" fill="white"/>
<path id="Vector_25" d="M73.0146 154.152C72.697 153.85 72.2289 153.699 71.6606 153.699C71.2427 153.699 70.875 153.783 70.5574 153.967C70.2398 154.135 69.989 154.369 69.7717 154.654C69.5711 154.939 69.404 155.274 69.3037 155.643C69.2034 156.012 69.1365 156.38 69.1365 156.766C69.1365 157.151 69.1867 157.52 69.3037 157.889C69.404 158.258 69.5711 158.593 69.7717 158.878C69.9723 159.163 70.2398 159.397 70.5574 159.581C70.875 159.766 71.2427 159.85 71.6606 159.85C71.9281 159.85 72.1788 159.799 72.4295 159.699C72.6635 159.598 72.8809 159.464 73.0647 159.28C73.2486 159.095 73.399 158.878 73.516 158.643C73.6331 158.392 73.7166 158.123 73.7334 157.822H74.6026C74.4856 158.693 74.168 159.38 73.6498 159.866C73.1316 160.352 72.463 160.604 71.6439 160.604C71.0923 160.604 70.6075 160.503 70.1896 160.302C69.7717 160.101 69.4207 159.833 69.1198 159.481C68.8357 159.129 68.6184 158.727 68.4679 158.274C68.3175 157.805 68.2506 157.319 68.2506 156.799C68.2506 156.28 68.3175 155.794 68.4679 155.325C68.6184 154.872 68.8357 154.47 69.1198 154.118C69.404 153.783 69.755 153.498 70.1896 153.297C70.6075 153.096 71.0923 152.995 71.6439 152.995C72.4128 152.995 73.0647 153.196 73.5996 153.615C74.1345 154.017 74.4521 154.638 74.5524 155.475H73.6832C73.5662 154.939 73.3322 154.52 73.0146 154.202V154.152Z" fill="white"/>
<path id="Vector_26" d="M76.8425 150.414V151.822H75.9733V150.414H76.8425ZM76.8425 153.179V160.369H75.9733V153.179H76.8425Z" fill="white"/>
<path id="Vector_27" d="M78.8149 154.286C78.9653 153.984 79.1659 153.733 79.4167 153.532C79.6674 153.331 79.9683 153.197 80.3193 153.096C80.6703 152.995 81.0381 152.962 81.456 152.962C81.7736 152.962 82.0912 152.995 82.3921 153.046C82.7097 153.113 82.9938 153.213 83.2446 153.381C83.4953 153.548 83.6959 153.783 83.863 154.085C84.0135 154.386 84.0971 154.772 84.0971 155.258V159.079C84.0971 159.431 84.2642 159.599 84.6152 159.599C84.7155 159.599 84.8158 159.599 84.8994 159.548V160.286C84.7991 160.286 84.6988 160.319 84.632 160.319C84.5484 160.319 84.4481 160.319 84.3311 160.319C84.1138 160.319 83.9299 160.286 83.7962 160.235C83.6625 160.168 83.5622 160.085 83.4786 159.984C83.4117 159.867 83.3616 159.749 83.3281 159.582C83.3114 159.431 83.2947 159.263 83.2947 159.079H83.2613C83.1108 159.314 82.9437 159.515 82.7765 159.699C82.6094 159.883 82.4255 160.034 82.2416 160.152C82.041 160.269 81.8237 160.369 81.5563 160.437C81.3055 160.504 81.0047 160.537 80.6536 160.537C80.3193 160.537 80.0017 160.504 79.7176 160.42C79.4334 160.336 79.1659 160.219 78.9486 160.051C78.7313 159.883 78.5642 159.666 78.4304 159.397C78.3134 159.129 78.2466 158.828 78.2466 158.459C78.2466 157.956 78.3636 157.571 78.5809 157.286C78.7982 157.001 79.0991 156.783 79.4668 156.649C79.8346 156.498 80.2525 156.398 80.7038 156.331C81.1551 156.263 81.6231 156.213 82.1079 156.163C82.2918 156.146 82.4589 156.113 82.5927 156.096C82.7264 156.062 82.8434 156.029 82.9437 155.945C83.044 155.878 83.1108 155.777 83.161 155.66C83.2111 155.543 83.2446 155.375 83.2446 155.191C83.2446 154.889 83.1944 154.655 83.0941 154.453C82.9938 154.269 82.8601 154.118 82.6929 154.001C82.5258 153.884 82.3252 153.817 82.0912 153.766C81.8572 153.716 81.6231 153.699 81.3557 153.699C80.8041 153.699 80.3528 153.833 80.0017 154.102C79.6507 154.37 79.4668 154.789 79.4501 155.375H78.5809C78.6143 154.956 78.6979 154.604 78.8483 154.286H78.8149ZM83.1944 156.431C83.1443 156.532 83.0273 156.615 82.8768 156.649C82.7264 156.699 82.5759 156.733 82.4589 156.749C82.0912 156.817 81.7067 156.867 81.3055 156.917C80.9044 156.967 80.5533 157.051 80.2357 157.152C79.9181 157.252 79.6507 157.403 79.4334 157.587C79.2328 157.772 79.1158 158.057 79.1158 158.409C79.1158 158.627 79.1659 158.828 79.2495 158.995C79.3331 159.163 79.4501 159.314 79.6005 159.448C79.751 159.565 79.9181 159.666 80.1187 159.733C80.3193 159.8 80.5199 159.833 80.7205 159.833C81.0548 159.833 81.3724 159.783 81.6733 159.682C81.9742 159.582 82.2416 159.431 82.4756 159.23C82.7097 159.029 82.8768 158.794 83.0105 158.526C83.1443 158.241 83.2111 157.939 83.2111 157.587V156.448H83.1777L83.1944 156.431Z" fill="white"/>
<path id="Vector_28" d="M86.8385 150.414V160.369H85.9692V150.414H86.8385Z" fill="white"/>
<path id="Vector_29" d="M93.2572 157.972C93.3408 158.307 93.4912 158.609 93.6751 158.877C93.8757 159.145 94.1097 159.363 94.4106 159.548C94.7115 159.732 95.0625 159.816 95.4804 159.816C96.1156 159.816 96.6171 159.648 96.9848 159.313C97.3526 158.978 97.6033 158.542 97.737 157.972H98.6062C98.4224 158.793 98.088 159.43 97.5866 159.866C97.0851 160.302 96.383 160.536 95.4804 160.536C94.9121 160.536 94.4273 160.436 94.0094 160.235C93.5915 160.034 93.2572 159.765 93.0065 159.414C92.739 159.062 92.5552 158.659 92.4381 158.207C92.3044 157.738 92.2543 157.268 92.2543 156.749C92.2543 156.28 92.3211 155.81 92.4381 155.358C92.5552 154.905 92.7557 154.503 93.0065 154.134C93.2572 153.782 93.6082 153.498 94.0094 153.263C94.4273 153.045 94.9121 152.928 95.4804 152.928C96.0487 152.928 96.5502 153.045 96.9514 153.28C97.3526 153.514 97.6869 153.816 97.9376 154.185C98.1883 154.553 98.3722 154.989 98.4892 155.475C98.6062 155.961 98.6397 156.464 98.6229 156.95H93.1068C93.1068 157.268 93.1569 157.587 93.2405 157.939L93.2572 157.972ZM97.5866 155.291C97.4863 154.989 97.3358 154.704 97.1353 154.47C96.9347 154.235 96.7006 154.051 96.4332 153.9C96.149 153.749 95.8481 153.682 95.4971 153.682C95.1461 153.682 94.8118 153.749 94.5443 153.9C94.2602 154.051 94.0261 154.235 93.8423 154.47C93.6417 154.704 93.4912 154.972 93.3742 155.291C93.2572 155.609 93.1736 155.911 93.1402 156.246H97.7872C97.7872 155.911 97.7203 155.592 97.62 155.291H97.5866Z" fill="white"/>
<path id="Vector_30" d="M100.779 153.162V154.402H100.813C100.98 153.967 101.281 153.615 101.699 153.347C102.116 153.078 102.585 152.944 103.103 152.944C103.621 152.944 104.022 153.011 104.356 153.145C104.691 153.28 104.975 153.464 105.175 153.698C105.376 153.933 105.526 154.218 105.61 154.57C105.694 154.905 105.727 155.307 105.727 155.726V160.352H104.858V155.86C104.858 155.559 104.824 155.274 104.774 155.006C104.724 154.738 104.624 154.52 104.473 154.319C104.34 154.117 104.139 153.967 103.905 153.866C103.671 153.749 103.37 153.698 103.019 153.698C102.668 153.698 102.351 153.766 102.083 153.883C101.816 154 101.582 154.185 101.381 154.402C101.197 154.62 101.047 154.888 100.93 155.173C100.829 155.475 100.763 155.793 100.763 156.162V160.352H99.8933V153.162H100.763H100.779Z" fill="white"/>
<path id="Vector_31" d="M110.341 153.162V153.9H108.886V158.743C108.886 159.028 108.92 159.263 109.003 159.413C109.087 159.581 109.287 159.665 109.588 159.682C109.839 159.682 110.09 159.682 110.341 159.631V160.369C110.207 160.369 110.073 160.369 109.956 160.369C109.822 160.369 109.689 160.369 109.572 160.369C108.987 160.369 108.585 160.251 108.351 160.034C108.117 159.799 108 159.38 108.017 158.777V153.866H106.763V153.129H108.017V150.967H108.886V153.129H110.341V153.162Z" fill="white"/>
<path id="Vector_32" d="M112.363 157.972C112.447 158.307 112.597 158.609 112.781 158.877C112.982 159.145 113.216 159.363 113.517 159.548C113.818 159.732 114.169 159.816 114.586 159.816C115.222 159.816 115.723 159.648 116.091 159.313C116.459 158.978 116.709 158.542 116.843 157.972H117.712C117.528 158.793 117.177 159.43 116.693 159.866C116.208 160.302 115.489 160.536 114.586 160.536C114.018 160.536 113.533 160.436 113.116 160.235C112.698 160.034 112.363 159.765 112.113 159.414C111.845 159.062 111.661 158.659 111.544 158.207C111.41 157.738 111.36 157.268 111.36 156.749C111.36 156.28 111.427 155.81 111.544 155.358C111.661 154.905 111.862 154.503 112.113 154.134C112.38 153.782 112.714 153.498 113.116 153.263C113.533 153.045 114.018 152.928 114.586 152.928C115.155 152.928 115.656 153.045 116.057 153.28C116.459 153.514 116.793 153.816 117.044 154.185C117.294 154.553 117.478 154.989 117.595 155.475C117.712 155.961 117.746 156.464 117.729 156.95H112.213C112.213 157.268 112.263 157.587 112.347 157.939L112.363 157.972ZM116.693 155.291C116.592 154.989 116.442 154.704 116.241 154.47C116.041 154.235 115.807 154.051 115.539 153.9C115.255 153.749 114.954 153.682 114.603 153.682C114.252 153.682 113.918 153.749 113.65 153.9C113.366 154.051 113.132 154.235 112.948 154.47C112.748 154.704 112.597 154.972 112.48 155.291C112.363 155.609 112.28 155.911 112.246 156.246H116.893C116.893 155.911 116.826 155.592 116.726 155.291H116.693Z" fill="white"/>
<path id="Vector_33" d="M119.852 153.162V154.855H119.885C120.103 154.269 120.454 153.816 120.922 153.498C121.39 153.179 121.941 153.045 122.593 153.062V153.933C122.192 153.933 121.841 153.967 121.507 154.101C121.189 154.235 120.905 154.403 120.671 154.637C120.437 154.872 120.253 155.14 120.119 155.459C119.986 155.777 119.919 156.129 119.919 156.514V160.352H119.049V153.162H119.852Z" fill="white"/>
<path id="Vector_34" d="M124.332 153.162V154.52H124.365C124.566 154.017 124.9 153.631 125.351 153.363C125.803 153.095 126.338 152.944 126.906 152.944C127.457 152.944 127.926 153.045 128.327 153.246C128.728 153.447 129.062 153.732 129.33 154.067C129.597 154.419 129.798 154.821 129.931 155.274C130.065 155.743 130.132 156.212 130.132 156.732C130.132 157.251 130.065 157.721 129.931 158.19C129.798 158.642 129.597 159.045 129.33 159.397C129.062 159.749 128.728 160.017 128.327 160.218C127.926 160.419 127.457 160.519 126.906 160.519C126.638 160.519 126.388 160.486 126.12 160.419C125.853 160.352 125.619 160.251 125.401 160.117C125.184 159.983 124.984 159.832 124.816 159.631C124.649 159.43 124.516 159.212 124.415 158.944H124.382V162.95H123.513V153.112H124.315L124.332 153.162ZM129.129 155.643C129.045 155.274 128.895 154.955 128.711 154.654C128.527 154.369 128.277 154.134 127.976 153.95C127.675 153.766 127.324 153.682 126.906 153.682C126.421 153.682 126.02 153.766 125.702 153.933C125.385 154.101 125.117 154.319 124.933 154.603C124.733 154.888 124.599 155.207 124.516 155.576C124.432 155.944 124.399 156.346 124.399 156.749C124.399 157.117 124.449 157.486 124.532 157.855C124.616 158.223 124.766 158.542 124.967 158.844C125.167 159.128 125.418 159.363 125.752 159.547C126.07 159.732 126.455 159.816 126.923 159.816C127.34 159.816 127.691 159.732 127.992 159.547C128.293 159.363 128.527 159.128 128.728 158.844C128.912 158.559 129.062 158.223 129.146 157.855C129.229 157.486 129.279 157.117 129.279 156.749C129.279 156.38 129.229 156.011 129.146 155.643H129.129Z" fill="white"/>
<path id="Vector_35" d="M132.422 153.162V154.855H132.455C132.673 154.269 133.024 153.816 133.492 153.498C133.96 153.179 134.511 153.045 135.163 153.062V153.933C134.762 153.933 134.411 153.967 134.077 154.101C133.759 154.235 133.475 154.403 133.241 154.637C133.007 154.872 132.823 155.14 132.689 155.459C132.556 155.777 132.489 156.129 132.489 156.514V160.352H131.62V153.162H132.422Z" fill="white"/>
<path id="Vector_36" d="M136.985 150.414V151.822H136.116V150.414H136.985ZM136.985 153.179V160.369H136.116V153.179H136.985Z" fill="white"/>
<path id="Vector_37" d="M142.903 154.571C142.802 154.37 142.669 154.202 142.502 154.085C142.334 153.951 142.134 153.867 141.917 153.8C141.699 153.733 141.449 153.716 141.214 153.716C141.014 153.716 140.83 153.733 140.629 153.783C140.429 153.833 140.245 153.9 140.078 153.984C139.911 154.085 139.777 154.202 139.677 154.37C139.576 154.52 139.526 154.721 139.526 154.956C139.526 155.157 139.576 155.308 139.677 155.442C139.777 155.576 139.894 155.694 140.044 155.794C140.195 155.878 140.362 155.962 140.529 156.029C140.713 156.096 140.863 156.129 141.014 156.18L142.184 156.448C142.435 156.481 142.685 156.548 142.936 156.649C143.187 156.749 143.404 156.867 143.588 157.034C143.772 157.185 143.939 157.386 144.056 157.621C144.173 157.855 144.24 158.124 144.24 158.442C144.24 158.827 144.156 159.163 143.973 159.431C143.789 159.699 143.571 159.934 143.304 160.101C143.036 160.269 142.719 160.403 142.385 160.47C142.034 160.537 141.699 160.587 141.365 160.587C140.529 160.587 139.844 160.386 139.309 159.984C138.791 159.582 138.49 158.945 138.406 158.057H139.275C139.309 158.66 139.526 159.096 139.927 159.397C140.329 159.699 140.813 159.85 141.398 159.85C141.616 159.85 141.833 159.833 142.05 159.783C142.284 159.732 142.485 159.649 142.685 159.548C142.886 159.448 143.036 159.297 143.17 159.129C143.304 158.962 143.354 158.744 143.354 158.492C143.354 158.274 143.304 158.107 143.22 157.956C143.137 157.805 143.02 157.688 142.869 157.604C142.719 157.504 142.552 157.42 142.368 157.353C142.184 157.286 141.983 157.235 141.8 157.185L140.68 156.934C140.395 156.867 140.128 156.766 139.894 156.682C139.66 156.582 139.443 156.464 139.259 156.314C139.075 156.163 138.941 155.995 138.841 155.777C138.741 155.576 138.69 155.308 138.69 155.006C138.69 154.654 138.774 154.336 138.941 154.068C139.108 153.816 139.309 153.599 139.576 153.448C139.844 153.28 140.128 153.18 140.446 153.096C140.763 153.029 141.081 152.979 141.398 152.979C141.766 152.979 142.1 153.029 142.401 153.113C142.719 153.196 142.986 153.347 143.22 153.548C143.454 153.749 143.638 153.984 143.789 154.269C143.922 154.554 144.006 154.889 144.023 155.291H143.154C143.154 155.023 143.087 154.789 142.986 154.587L142.903 154.571Z" fill="white"/>
<path id="Vector_38" d="M146.229 157.972C146.313 158.307 146.463 158.609 146.647 158.877C146.848 159.145 147.082 159.363 147.383 159.548C147.683 159.732 148.034 159.816 148.452 159.816C149.088 159.816 149.589 159.648 149.957 159.313C150.324 158.978 150.575 158.542 150.709 157.972H151.578C151.394 158.793 151.043 159.43 150.558 159.866C150.057 160.319 149.355 160.536 148.452 160.536C147.884 160.536 147.399 160.436 146.981 160.235C146.563 160.034 146.229 159.765 145.978 159.414C145.711 159.062 145.527 158.659 145.393 158.207C145.276 157.738 145.209 157.268 145.209 156.749C145.209 156.28 145.276 155.81 145.393 155.358C145.527 154.905 145.711 154.503 145.978 154.134C146.229 153.782 146.58 153.498 146.981 153.263C147.399 153.045 147.884 152.928 148.452 152.928C149.021 152.928 149.522 153.045 149.923 153.28C150.324 153.514 150.659 153.816 150.91 154.185C151.16 154.553 151.344 154.989 151.461 155.475C151.578 155.961 151.612 156.464 151.595 156.95H146.079C146.079 157.268 146.129 157.587 146.212 157.939L146.229 157.972ZM150.558 155.291C150.458 154.989 150.308 154.704 150.107 154.47C149.907 154.235 149.673 154.051 149.405 153.9C149.121 153.749 148.82 153.682 148.452 153.682C148.085 153.682 147.767 153.749 147.5 153.9C147.215 154.051 146.981 154.235 146.797 154.47C146.597 154.704 146.446 154.972 146.329 155.291C146.212 155.609 146.129 155.911 146.095 156.246H150.742C150.742 155.911 150.675 155.592 150.575 155.291H150.558Z" fill="white"/>
</g>
</g>
<defs>
<clipPath id="clip0_2527_1336">
<rect width="199" height="163" fill="white" transform="translate(0.38501)"/>
</clipPath>
</defs>
</svg>
