<svg width="60" height="60" viewBox="0 0 60 60" fill="none" xmlns="http://www.w3.org/2000/svg">
<g clip-path="url(#clip0_2023_8800)">
<path d="M30 60C46.5685 60 60 46.5685 60 30C60 13.4315 46.5685 0 30 0C13.4315 0 0 13.4315 0 30C0 46.5685 13.4315 60 30 60Z" fill="#54B5B7"/>
<path d="M47.278 18.7882L40.0883 11.5985L36.6256 15.0612L37.8714 16.307L37.2555 16.923L46.0696 25.7371L44.4911 27.3156L46.2489 29.0734L44.8129 30.5094L23.9747 9.67139L19.21 14.436L20.8645 16.0904L16.7867 20.1682L14.3703 17.7518L11.4199 20.7022L12.2514 21.5338L11.2138 22.5714L15.7244 27.0819L13.2855 29.5208L12.5696 28.8049L9.10693 32.2676L14.8736 38.0343L11.4631 41.4448L30.018 59.9997C46.5781 59.9901 59.9999 46.5625 59.9999 29.9999C59.9999 28.3692 59.868 26.7695 59.6176 25.2094L50.2372 15.829L47.278 18.7882Z" fill="#369799"/>
<path d="M29.0427 32.395V43.2446H30L30.7473 37.8197L30 32.395H29.0427Z" fill="#FABA35"/>
<path d="M30 32.395H30.9573V43.2446H30V32.395Z" fill="#FBA32B"/>
<path d="M30 19.2461L27.8664 26.1508H21.0651L26.575 30.3299L24.4779 37.116L30 32.9276L30.8376 28.1811L30 19.2461Z" fill="#FCCE36"/>
<path d="M38.935 26.1508H32.1336L30 19.2461V32.9276L35.5221 37.116L33.425 30.3299L38.935 26.1508Z" fill="#FABA35"/>
<path d="M15.9594 28.6297C15.9594 24.5285 17.7272 20.8325 20.5405 18.2633L18.2493 16.9263C15.2584 19.929 13.4066 24.0667 13.4066 28.6297C13.4066 37.7793 20.8504 45.2231 30 45.2231V42.6703C22.258 42.6703 15.9594 36.3717 15.9594 28.6297Z" fill="#E9EDF5"/>
<path d="M44.0406 28.6297C44.0406 24.5285 42.2728 20.8325 39.4595 18.2633L41.7507 16.9263C44.7416 19.929 46.5934 24.0667 46.5934 28.6297C46.5934 37.7793 39.1496 45.2231 30 45.2231V42.6703C37.742 42.6703 44.0406 36.3717 44.0406 28.6297Z" fill="#CDD2E1"/>
<path d="M18.6661 18.8658L18.3102 17.5377C17.4336 14.2663 19.375 10.9038 22.6464 10.0273L23.9745 9.67139L24.3304 10.9995C25.2069 14.2709 23.2656 17.6333 19.9942 18.5099L18.6661 18.8658Z" fill="#FDD04E"/>
<path d="M20.797 40.9246L19.7437 41.8085C17.1493 43.9855 13.2814 43.647 11.1044 41.0526L10.2206 39.9993L11.2739 39.1155C13.8683 36.9385 17.7362 37.2769 19.9132 39.8714L20.797 40.9246Z" fill="#FDD04E"/>
<path d="M15.8873 33.7565L14.5332 33.9952C11.1979 34.5833 8.01731 32.3562 7.42926 29.021L7.19055 27.6669L8.54465 27.4282C11.8799 26.8401 15.0605 29.0671 15.6486 32.4024L15.8873 33.7565Z" fill="#FDD04E"/>
<path d="M15.8526 24.5258L14.4985 24.2871C11.1632 23.6991 8.93618 20.5185 9.52423 17.1832L9.76294 15.8291L11.117 16.0678C14.4523 16.6559 16.6793 19.8364 16.0913 23.1717L15.8526 24.5258Z" fill="#FDD04E"/>
<path d="M41.334 18.8658L41.6899 17.5377C42.5664 14.2663 40.6251 10.9038 37.3537 10.0273L36.0256 9.67139L35.6697 10.9995C34.7931 14.2709 36.7345 17.6333 40.0059 18.5099L41.334 18.8658Z" fill="#FABA35"/>
<path d="M39.203 40.9246L40.2563 41.8085C42.8507 43.9855 46.7186 43.647 48.8956 41.0526L49.7794 39.9993L48.7261 39.1155C46.1317 36.9385 42.2638 37.2769 40.0868 39.8714L39.203 40.9246Z" fill="#FABA35"/>
<path d="M44.1128 33.7565L45.4669 33.9952C48.8022 34.5833 51.9828 32.3562 52.5708 29.021L52.8095 27.6669L51.4554 27.4282C48.1201 26.8401 44.9396 29.0671 44.3515 32.4024L44.1128 33.7565Z" fill="#FABA35"/>
<path d="M44.1475 24.5258L45.5016 24.2871C48.8368 23.6991 51.0639 20.5185 50.4758 17.1832L50.2371 15.8291L48.883 16.0678C45.5477 16.6559 43.3207 19.8364 43.9087 23.1717L44.1475 24.5258Z" fill="#FABA35"/>
<path d="M20.4269 43.9463V50.3284H30L31.0906 47.1373L30 43.9463H20.4269Z" fill="#F2F9FF"/>
<path d="M30 43.9463H39.5732V50.3284H30V43.9463Z" fill="#E9EDF5"/>
</g>
<defs>
<clipPath id="clip0_2023_8800">
<rect width="60" height="60" fill="white"/>
</clipPath>
</defs>
</svg>
