<svg width="60" height="60" viewBox="0 0 60 60" fill="none" xmlns="http://www.w3.org/2000/svg">
<g clip-path="url(#clip0_2023_8678)">
<path d="M59.7752 26.3091C57.9561 11.4819 45.3189 0 30 0C25.2921 0 21.3214 1.08294 18.2684 2.36624L17.3079 3.96777L15.2479 3.838C12.7162 5.25282 11.3326 6.518 11.3239 6.52282C11.3239 6.52282 11.0282 6.89188 10.9729 7.13718C10.5238 9.13106 10.1041 11.8034 10.1041 13.7534C10.1041 30.322 24.0762 43.7501 40.6448 43.7501C47.0249 43.7501 54.1234 40.6922 58.8741 37.0156C58.9804 36.9334 59.3175 36.3808 59.3175 36.3808C59.3334 36.2833 59.7221 34.7274 59.9057 32.3885L59.7752 26.3091Z" fill="#098DB7"/>
<path d="M40.6422 42.9034C24.0737 42.9034 10.6422 29.472 10.6422 12.9034C10.6422 10.7134 10.8784 8.57954 11.324 6.52295C9.23706 8.18554 7.37659 10.1205 5.79647 12.274L0.588004 24.0617C0.207534 25.9555 0.00541619 27.914 0.00012207 29.9187L2.63447 42.3117C7.22012 52.4886 17.3159 59.6477 29.1205 59.9874L29.6587 59.6094L30.3111 59.9985C32.6502 59.9746 34.93 59.6815 37.1193 59.1478L54.3392 47.5434C56.7038 44.2689 58.4274 40.4899 59.3175 36.3812C54.1929 40.4628 47.7031 42.9034 40.6422 42.9034Z" fill="#3B69AF"/>
<path d="M38.0167 10.3677H29.29V15.801C29.29 16.5827 30.0981 17.1029 30.8097 16.7791L40.1697 12.5206C40.1697 11.3316 39.2058 10.3677 38.0167 10.3677Z" fill="#F1D333"/>
<path d="M21.1553 4.25439V8.03581C24.6412 8.03581 27.9817 9.40569 30.4834 11.8332C30.6641 12.0085 30.851 12.1802 31.0437 12.3478L54.7065 13.2497C57.877 10.9951 59.8558 7.79898 59.8558 4.25451L21.1553 4.25439Z" fill="#54B5B7"/>
<path d="M41.0725 6.56189H32.3458V1.1286C32.3458 0.346831 33.1539 -0.173286 33.8654 0.150478L43.2254 4.40895C43.2254 5.59801 42.2615 6.56189 41.0725 6.56189Z" fill="#F1CB86"/>
<path d="M16.8486 6.01929C16.8487 7.47493 12.6878 9.69917 13.588 10.8431C14.8368 12.4299 21.1553 8.03588 21.1553 8.03588V4.25446C21.1553 4.25446 19.8277 3.27317 18.2684 2.3667C17.1311 2.84482 16.1213 3.35046 15.248 3.83858C16.0629 4.60976 16.8485 5.38799 16.8486 6.01929Z" fill="#E27A66"/>
<path d="M53.3952 7.50314C54.396 7.50314 55.2073 6.69183 55.2073 5.69102C55.2073 4.69022 54.396 3.87891 53.3952 3.87891C52.3944 3.87891 51.5831 4.69022 51.5831 5.69102C51.5831 6.69183 52.3944 7.50314 53.3952 7.50314Z" fill="#098DB7"/>
<path d="M53.3952 6.56174C54.396 6.56174 55.2073 5.75042 55.2073 4.74962C55.2073 3.74881 54.396 2.9375 53.3952 2.9375C52.3944 2.9375 51.5831 3.74881 51.5831 4.74962C51.5831 5.75042 52.3944 6.56174 53.3952 6.56174Z" fill="#F2F9FF"/>
<path d="M53.9055 5.80838C54.2083 5.80838 54.4538 5.56293 54.4538 5.26015C54.4538 4.95737 54.2083 4.71191 53.9055 4.71191C53.6028 4.71191 53.3573 4.95737 53.3573 5.26015C53.3573 5.56293 53.6028 5.80838 53.9055 5.80838Z" fill="#21386B"/>
<path d="M54.706 13.2492C52.1942 10.4461 47.6307 8.57178 42.4172 8.57178C37.7852 8.57178 33.6667 10.0515 31.0439 12.3474C34.0521 14.9642 38.4932 16.6199 43.448 16.6199C47.8066 16.62 51.7678 15.3387 54.706 13.2492Z" fill="#5FD2D0"/>
<path d="M0.825185 37.0084C1.26542 38.8475 1.87342 40.6213 2.63495 42.3113L11.7048 38.1847C11.7048 36.9956 10.741 36.0317 9.55189 36.0317L0.677185 36.3566L0.825185 37.0084Z" fill="#F1D333"/>
<path d="M0.00117647 29.9185C0.00117647 29.9456 0 29.9726 0 29.9998C0 32.1812 0.234941 34.3073 0.677059 36.3565C1.14588 36.7056 1.59435 37.0858 2.01835 37.4972C2.19906 37.6725 2.38588 37.8441 2.57859 38.0118L26.2414 38.9136C29.4119 36.659 31.3907 33.4629 31.3907 29.9185H0.00117647Z" fill="#54B5B7"/>
<path d="M12.6075 32.226H3.88083V26.7927C3.88083 26.0109 4.68895 25.4908 5.40048 25.8145L14.7605 30.073C14.7605 31.2621 13.7966 32.226 12.6075 32.226Z" fill="#F1CB86"/>
<path d="M24.9303 33.1672C25.9311 33.1672 26.7424 32.3559 26.7424 31.3551C26.7424 30.3543 25.9311 29.543 24.9303 29.543C23.9294 29.543 23.1181 30.3543 23.1181 31.3551C23.1181 32.3559 23.9294 33.1672 24.9303 33.1672Z" fill="#098DB7"/>
<path d="M24.9303 32.2258C25.9311 32.2258 26.7424 31.4145 26.7424 30.4137C26.7424 29.4129 25.9311 28.6016 24.9303 28.6016C23.9294 28.6016 23.1181 29.4129 23.1181 30.4137C23.1181 31.4145 23.9294 32.2258 24.9303 32.2258Z" fill="#F2F9FF"/>
<path d="M25.4406 31.4724C25.7434 31.4724 25.9888 31.227 25.9888 30.9242C25.9888 30.6214 25.7434 30.376 25.4406 30.376C25.1378 30.376 24.8924 30.6214 24.8924 30.9242C24.8924 31.227 25.1378 31.4724 25.4406 31.4724Z" fill="#21386B"/>
<path d="M26.2411 38.9133C23.7293 36.1102 19.1658 34.2358 13.9522 34.2358C9.32024 34.2358 5.20177 35.7156 2.57895 38.0115C5.58718 40.6283 10.0282 42.284 14.9831 42.284C19.3417 42.2841 23.3028 41.0028 26.2411 38.9133Z" fill="#5FD2D0"/>
<path d="M30.3112 59.9967L39.5161 55.8087C39.5161 54.6196 38.5522 53.6558 37.3632 53.6558H28.6365V59.0891C28.6365 59.4758 28.8346 59.798 29.1207 59.9862C29.4129 59.9947 29.7059 60 30.0001 60C30.104 60.0001 30.2074 59.9978 30.3112 59.9967Z" fill="#F1D333"/>
<path d="M20.5015 47.5425V51.3239C23.9874 51.3239 27.3279 52.6938 29.8295 55.1213C30.0102 55.2966 30.1971 55.4682 30.3898 55.6358L49.0284 53.1908C51.0294 51.5481 52.8163 49.6498 54.3381 47.5425H20.5015Z" fill="#54B5B7"/>
<path d="M40.4187 49.85H31.692V44.4167C31.692 43.6349 32.5001 43.1148 33.2117 43.4386L42.5717 47.697C42.5717 48.886 41.6078 49.85 40.4187 49.85Z" fill="#F1CB86"/>
<path d="M12.9342 54.131C14.1831 55.7178 20.5015 51.3073 20.5015 51.3073V47.5425C20.5015 47.5425 14.2178 42.8972 12.9342 44.4834C12.0187 45.615 16.1947 47.8516 16.1948 49.3072C16.1949 50.7629 12.034 52.9872 12.9342 54.131Z" fill="#E27A66"/>
<path d="M41.7634 51.8599C37.1314 51.8599 33.013 53.3396 30.3901 55.6355C32.1871 57.1987 34.4957 58.4184 37.1193 59.1476C41.5454 58.0683 45.6005 56.004 49.0283 53.1906C46.8974 52.3455 44.4148 51.8599 41.7634 51.8599Z" fill="#5FD2D0"/>
<path d="M45.1818 37.1355L41.22 32.0777C40.9707 31.7595 40.9114 31.3318 41.0646 30.9577C41.3 30.3827 41.957 30.1076 42.5319 30.343L47.6132 32.4238C48.0803 32.6151 48.3039 33.1489 48.1126 33.6159L46.7557 36.9293C46.4876 37.584 45.6093 37.699 45.1818 37.1355Z" fill="#82BE50"/>
<path d="M59.811 28.0219C59.7857 26.8532 59.1331 25.7812 58.0939 25.2458C58.0875 25.2425 58.0812 25.2393 58.0748 25.236C55.7888 24.0632 52.6985 23.3311 49.7278 23.3311C44.0032 23.3311 36.6564 26.0491 36.6564 29.402C36.6564 29.7865 36.753 30.1625 36.9326 30.5271C38.1545 32.2262 44.7041 34.236 49.7724 34.236C51.291 34.236 52.8339 34.2351 54.2833 34.1228C57.4528 33.8772 59.8797 31.2005 59.811 28.0219Z" fill="#F1CB86"/>
<path d="M60 29.9998C60 28.7503 59.9223 27.5189 59.7739 26.3095C59.2826 25.9218 58.7101 25.5617 58.0748 25.2358C58.3253 25.6989 58.4624 26.1827 58.4624 26.6805C58.4624 30.0334 52.2921 32.7515 46.5674 32.7515C43.3348 32.7515 39.5854 31.8847 36.9333 30.5265C38.3201 33.3421 44.6592 35.4728 49.7277 35.4728C53.5985 35.4728 57.6724 34.23 59.9053 32.3887C59.9625 31.661 60 30.8587 60 29.9998Z" fill="#F1D333"/>
<path d="M40.3221 29.4343C41.3229 29.4343 42.1342 28.623 42.1342 27.6222C42.1342 26.6214 41.3229 25.8101 40.3221 25.8101C39.3213 25.8101 38.51 26.6214 38.51 27.6222C38.51 28.623 39.3213 29.4343 40.3221 29.4343Z" fill="#F1D333"/>
<path d="M40.3221 28.4929C41.3229 28.4929 42.1342 27.6816 42.1342 26.6808C42.1342 25.68 41.3229 24.8687 40.3221 24.8687C39.3213 24.8687 38.51 25.68 38.51 26.6808C38.51 27.6816 39.3213 28.4929 40.3221 28.4929Z" fill="#F2F9FF"/>
<path d="M39.8118 27.739C40.1146 27.739 40.36 27.4936 40.36 27.1908C40.36 26.888 40.1146 26.6426 39.8118 26.6426C39.509 26.6426 39.2635 26.888 39.2635 27.1908C39.2635 27.4936 39.509 27.739 39.8118 27.739Z" fill="#21386B"/>
<path d="M50.215 33.7498L44.632 30.5707C44.2807 30.3707 44.0638 29.9974 44.0638 29.5932C44.0638 28.9719 44.5674 28.4683 45.1887 28.4683H50.6795C51.1843 28.4683 51.5934 28.8774 51.5934 29.3821V32.9626C51.5934 33.67 50.8243 34.1093 50.215 33.7498Z" fill="#82BE50"/>
<path d="M22.5594 23.0422C21.3106 24.6291 14.9921 20.2185 14.9921 20.2185V16.4536C14.9921 16.4536 21.2759 11.8083 22.5594 13.3946C23.4749 14.5261 19.2989 16.7627 19.2988 18.2183C19.2986 19.674 23.4596 21.8983 22.5594 23.0422Z" fill="#82BE50"/>
<path d="M12.0144 14.0592C10.273 13.166 8.0648 12.5284 5.79845 12.2754C4.81162 13.6203 3.93409 15.0503 3.17915 16.5526L3.26174 18.6293L1.63221 20.222C1.47986 20.6639 1.33751 21.1103 1.20551 21.5613L1.86292 22.5925C7.58762 22.5925 13.4604 21.0754 13.4604 17.7226C13.4604 16.1096 12.9239 14.8733 12.0144 14.0592Z" fill="#F1CB86"/>
<path d="M12.0143 14.0596C12.2648 14.5226 12.4019 15.0064 12.4019 15.5043C12.4019 18.7212 6.72198 21.3532 1.20528 21.5615C0.965395 22.3809 0.759865 23.2149 0.58963 24.0618C1.63304 24.2144 2.67457 24.2965 3.66728 24.2965C9.39198 24.2965 15.5622 21.5785 15.5622 18.2256C15.5621 16.6126 14.1337 15.1467 12.0143 14.0596Z" fill="#F1D333"/>
<path d="M4.46528 21.8351C5.07458 22.1947 5.84375 21.7555 5.84375 21.0481V17.4676C5.84375 16.9629 5.43458 16.5537 4.92987 16.5537H3.18093C2.58752 17.7344 2.06928 18.9592 1.63364 20.2228L4.46528 21.8351Z" fill="#82BE50"/>
</g>
<defs>
<clipPath id="clip0_2023_8678">
<rect width="60" height="60" fill="white"/>
</clipPath>
</defs>
</svg>
