<svg width="60" height="60" viewBox="0 0 60 60" fill="none" xmlns="http://www.w3.org/2000/svg">
<g clip-path="url(#clip0_2023_8659)">
<path d="M6.60964 48.7843C2.34878 43.4857 -0.15015 36.7099 0.00686286 29.3454C0.353848 13.0692 13.7485 -0.0150931 30.0284 1.30672e-05C46.5838 0.0151192 60 13.4409 60 30C60 37.115 57.5216 43.6501 53.383 48.793C53.1029 49.1409 52.6547 49.3057 52.2153 49.2252C44.913 47.888 36.9598 47.1533 28.6377 47.1533C21.0155 47.1533 13.7031 47.7699 6.91635 48.9011C6.80053 48.9203 6.68334 48.8759 6.60964 48.7843Z" fill="#23C77D"/>
<path d="M27.7734 23.6032C30.3475 20.4675 31.2433 17.0563 29.7336 15.5461C28.5141 14.3271 26.0541 14.6777 23.5007 16.2131C23.3034 11.7242 21.4201 8.20312 19.1245 8.20312C16.8288 8.20312 14.9451 11.7242 14.7478 16.2135C12.1948 14.6777 9.73436 14.3271 8.51487 15.5466C7.00517 17.0563 7.90101 20.4675 10.475 23.6032C9.67485 23.6179 8.99782 23.855 8.51487 24.3375C6.79872 26.0536 8.18986 30.2275 11.6222 33.6598C14.1463 36.1839 17.0705 37.6021 19.1245 37.4945C21.178 37.6021 24.1022 36.1839 26.6263 33.6598C30.0586 30.2275 31.4497 26.0536 29.7336 24.3375C29.2511 23.8545 28.5741 23.6179 27.7734 23.6032ZM18.9793 28.7073C19.0279 28.7064 19.0764 28.7059 19.1245 28.7031C19.1721 28.7054 19.2206 28.7064 19.2691 28.7073C19.221 28.7663 19.1712 28.8249 19.1245 28.8835C19.0773 28.8249 19.0279 28.7663 18.9793 28.7073Z" fill="#03AD6B"/>
<path d="M45.4848 33.5439C46.04 34.1202 46.3513 34.7666 46.3513 35.4491C46.3513 37.8762 42.4164 39.8436 37.5622 39.8436C34.8724 39.8436 32.4664 39.2389 30.8551 38.2872C30.466 39.102 29.9991 39.7676 29.4781 40.2368C28.1021 41.7649 25.0319 42.8296 21.4622 42.8296C16.6081 42.8296 12.6732 40.8621 12.6732 38.4351C12.6732 37.7526 12.984 37.1062 13.5397 36.5299C9.50226 36.133 6.88477 34.3541 6.88477 32.2191C6.88477 30.4943 8.44437 29.0029 11.3356 28.2833C8.30109 24.9695 7.14294 21.1481 8.76617 19.5249C10.3894 17.9016 14.2113 19.0593 17.525 22.0943C18.2446 19.2026 19.736 17.215 21.4604 17.215C23.5959 17.215 25.3743 20.261 25.7716 24.298C26.348 23.7427 26.9943 23.4314 27.6768 23.4314C27.7977 23.4314 27.9167 23.4438 28.0348 23.463C28.8405 21.6146 30.0252 20.4454 31.3476 20.4454C32.0302 20.4454 32.6765 20.7567 33.2529 21.312C33.6502 17.275 35.4286 14.229 37.5641 14.229C39.2885 14.229 40.7799 16.2166 41.4995 19.1083C44.8132 16.0733 48.6351 14.9152 50.2583 16.5389C51.8815 18.1621 50.7234 21.9835 47.6889 25.2973C50.5801 26.0169 52.5677 27.5083 52.5677 29.2331C52.5677 31.3681 49.5218 33.1465 45.4848 33.5439Z" fill="#00824D"/>
<path d="M36.1816 42.1875C31.9748 42.1875 28.5645 38.7771 28.5645 34.5703V7.61719C28.5645 3.41034 31.9748 0 36.1816 0C40.3885 0 43.7988 3.41034 43.7988 7.61719V34.5703C43.7988 38.7771 40.3885 42.1875 36.1816 42.1875Z" fill="#F7C32A"/>
<path d="M43.7988 7.61719V34.5703C43.7988 38.7771 40.3885 42.1875 36.1816 42.1875C35.3192 42.1875 34.4916 42.0424 33.7184 41.7782C32.6225 40.4585 31.9629 38.7634 31.9629 36.9141V28.7109C31.9629 27.74 32.7498 26.9531 33.7207 26.9531H39.6973C40.3702 26.9531 40.9108 26.3859 40.8668 25.7034C40.8261 25.0804 40.2814 24.6094 39.657 24.6094H33.7207C32.7498 24.6094 31.9629 23.8225 31.9629 22.8516C31.9629 21.8806 32.7498 21.0937 33.7207 21.0937H39.6973C40.3702 21.0937 40.9108 20.5266 40.8664 19.844C40.8261 19.221 40.2814 18.75 39.657 18.75H33.7207C32.7498 18.75 31.9629 17.9631 31.9629 16.9922C31.9629 16.0213 32.7498 15.2344 33.7207 15.2344H39.6973C40.3702 15.2344 40.9108 14.6672 40.8664 13.9847C40.8261 13.3617 40.2814 12.8906 39.657 12.8906H33.7207C32.7498 12.8906 31.9629 12.1037 31.9629 11.1328C31.9629 10.1619 32.7498 9.375 33.7207 9.375H39.6973C40.3702 9.375 40.9108 8.80783 40.8664 8.1253C40.8261 7.50229 40.2814 7.03125 39.657 7.03125H33.7207C32.7498 7.03125 31.9629 6.24435 31.9629 5.27344C31.9629 3.42407 32.6225 1.72897 33.7184 0.409241C34.4916 0.145111 35.3192 0 36.1816 0C40.3885 0 43.7988 3.41034 43.7988 7.61719Z" fill="#F7D674"/>
<path d="M33.5696 26.3029C33.0313 26.6164 32.7077 27.1992 32.7077 27.8217C32.7077 28.4443 33.0313 29.0275 33.5696 29.3406C34.0805 29.6377 34.4238 30.1911 34.4238 30.8246V54.6512C34.4238 55.5993 33.6557 56.3674 32.7077 56.3674H18.1224C17.1744 56.3674 16.4062 55.5993 16.4062 54.6512V30.8246C16.4062 30.1911 16.7496 29.6377 17.2604 29.3406C17.7983 29.0275 18.1224 28.4443 18.1224 27.8217C18.1224 27.1992 17.7988 26.6164 17.2604 26.3029C16.7496 26.0058 16.4062 25.4523 16.4062 24.8188V21.3869C16.4062 18.791 18.3275 16.644 20.8255 16.2902C21.2453 16.2307 21.5543 15.8663 21.5543 15.4424V11.9492H29.2758V15.4424C29.2758 15.8663 29.5848 16.2307 30.0046 16.2902C32.5026 16.644 34.4238 18.791 34.4238 21.3869V24.8188C34.4238 25.4523 34.0805 26.0058 33.5696 26.3029Z" fill="white"/>
<path d="M34.4238 21.3865V24.8184C34.4238 25.4519 34.0805 26.0053 33.5696 26.3024C33.0313 26.616 32.7076 27.1987 32.7076 27.8213C32.7076 28.4438 33.0313 29.027 33.5696 29.3401C34.0805 29.6372 34.4238 30.1907 34.4238 30.8242V55.0024C34.4238 55.9504 33.6557 56.7185 32.7076 56.7185H19.1258C18.9793 56.4658 18.8942 56.1733 18.8942 55.8607V31.6821C18.8942 31.0485 19.2375 30.4951 19.7484 30.198C20.2867 29.8849 20.6103 29.3022 20.6103 28.6791C20.6103 28.0566 20.2867 27.4738 19.7484 27.1607C19.2375 26.8632 18.8942 26.3097 18.8942 25.6762V22.2444C18.8942 19.6488 20.8154 17.5015 23.3139 17.1476C23.7332 17.0881 24.0422 16.7237 24.0422 16.2998V12.8066H29.2758V15.442C29.2758 15.8659 29.5848 16.2303 30.0045 16.2898C32.5026 16.6436 34.4238 18.7905 34.4238 21.3865Z" fill="#FFF5F5"/>
<path d="M31.7981 22.7598C31.9505 22.7598 32.0787 22.8815 32.0787 23.034V23.0372V26.0621C32.0787 26.6205 31.723 27.1081 31.1943 27.3704C30.6367 27.6464 30.3016 28.16 30.3016 28.7089C30.3016 29.2582 30.6367 29.7718 31.1943 30.0478C31.723 30.3097 32.0787 30.7976 32.0787 31.3561V53.288C32.0787 54.1234 31.2831 54.8005 30.3016 54.8005H20.5284C19.5469 54.8005 18.7513 54.1234 18.7513 53.288V31.3561C18.7513 30.7976 19.107 30.3097 19.6357 30.0478C20.1933 29.7718 20.5284 29.2582 20.5284 28.7089C20.5284 28.16 20.1933 27.6464 19.6357 27.3704C19.107 27.1081 18.7513 26.6205 18.7513 26.0621V23.0372C18.7513 23.0358 18.7513 23.0349 18.7513 23.034C18.7513 22.8815 18.8795 22.7598 19.032 22.7598H31.7981Z" fill="#16BADB"/>
<path d="M30.1341 10.5469V13.3511C30.1341 13.998 29.609 14.523 28.9622 14.523H21.8678C21.2205 14.523 20.6959 13.998 20.6959 13.3511V10.5469C20.6959 9.8996 21.2205 9.375 21.8678 9.375H28.9622C29.609 9.375 30.1341 9.8996 30.1341 10.5469Z" fill="#F45751"/>
<path d="M23.3986 9.38004V14.518C22.798 14.4672 22.3265 13.9645 22.3265 13.3511V10.5469C22.3265 9.93301 22.798 9.43039 23.3986 9.38004ZM24.6859 14.523H25.8655V9.375H24.6859V14.523ZM29.6192 9.57642V14.3216C29.93 14.1106 30.1342 13.7549 30.1342 13.3511V10.5469C30.1342 10.1431 29.93 9.78744 29.6192 9.57642ZM27.1523 14.523H28.3324V9.375H27.1523V14.523Z" fill="#F56D59"/>
<path d="M53.4375 48.7253C47.9397 55.5972 39.4849 60 30 60C20.5151 60 12.0598 55.5972 6.5625 48.7253V30.5397C6.5625 29.8535 7.11914 29.2969 7.80533 29.2969C8.13492 29.2969 8.45123 29.4278 8.68423 29.6608L10.3326 31.3092C10.5157 31.4923 10.8124 31.4923 10.9955 31.3092L12.3862 29.9185C12.7844 29.5203 13.3241 29.2969 13.8867 29.2969C14.4493 29.2969 14.989 29.5207 15.3868 29.9185L16.778 31.3092C16.9611 31.4923 17.2577 31.4923 17.4408 31.3092L18.8315 29.9185C19.2293 29.5203 19.769 29.2969 20.332 29.2969C20.8946 29.2969 21.4343 29.5207 21.8321 29.9185L23.2228 31.3092C23.4059 31.4923 23.703 31.4923 23.8861 31.3092L25.2768 29.9185C25.6746 29.5203 26.2143 29.2969 26.7769 29.2969C27.3399 29.2969 27.8796 29.5207 28.2774 29.9185L29.6681 31.3092C29.8512 31.4923 30.1483 31.4923 30.331 31.3092L31.7221 29.9185C32.1199 29.5203 32.6596 29.2969 33.2222 29.2969C33.7848 29.2969 34.3249 29.5207 34.7227 29.9185L36.1134 31.3092C36.2965 31.4923 36.5932 31.4923 36.7763 31.3092L38.167 29.9185C38.5652 29.5203 39.1049 29.2969 39.6675 29.2969C40.2301 29.2969 40.7698 29.5207 41.1676 29.9185L42.5587 31.3092C42.7418 31.4923 43.0385 31.4923 43.2216 31.3092L44.6123 29.9185C45.0101 29.5203 45.5498 29.2969 46.1128 29.2969C46.6754 29.2969 47.2151 29.5207 47.6129 29.9185L49.0036 31.3092C49.1867 31.4923 49.4838 31.4923 49.6669 31.3092L51.3148 29.6608C51.5478 29.4278 51.8642 29.2969 52.1937 29.2969C52.8804 29.2969 53.437 29.8535 53.437 30.5397V48.7253H53.4375Z" fill="#F7B95F"/>
<path d="M16.0126 54.0207C20.5243 57.4013 26.0193 59.5409 31.9922 59.9322C31.3335 59.9757 30.6697 60 30 60C20.5151 60 12.0598 55.5972 6.5625 48.7253V30.5397C6.5625 29.8535 7.11914 29.2969 7.80533 29.2969C8.13492 29.2969 8.45123 29.4278 8.68423 29.6608L10.3326 31.3092C10.394 31.3705 10.4686 31.4095 10.5469 31.4296V42.9922C10.5469 47.3204 12.5491 51.4256 16.0126 54.0207Z" fill="#F7AD3B"/>
</g>
<defs>
<clipPath id="clip0_2023_8659">
<rect width="60" height="60" fill="white"/>
</clipPath>
</defs>
</svg>
