<svg width="60" height="60" viewBox="0 0 60 60" fill="none" xmlns="http://www.w3.org/2000/svg">
<g clip-path="url(#clip0_2023_8726)">
<path d="M29.6656 1.27393C18.366 1.27393 11.4052 7.64762 11.3861 7.65845C11.3861 7.65845 11.0967 8.01959 11.0426 8.25981C10.603 10.2114 10.1922 12.827 10.1922 14.7356C10.1922 30.9524 23.8678 44.0955 40.0845 44.0955C46.3292 44.0955 53.2769 41.1026 57.9268 37.5041C58.0308 37.4236 58.3609 36.8827 58.3609 36.8827C58.3813 36.7575 59.0288 34.1794 59.0288 30.6372C59.0288 14.4202 45.8825 1.27393 29.6656 1.27393Z" fill="#F6E781"/>
<path d="M40.0819 43.2663C23.8652 43.2663 10.7189 30.12 10.7189 13.9032C10.7189 11.7597 10.95 9.67121 11.3861 7.6582C4.63313 13.038 0.302551 21.3318 0.302551 30.6367C0.302551 37.6503 2.76152 44.0894 6.86423 49.1392L52.6299 48.9375C55.3867 45.4841 57.3852 41.3855 58.3608 36.8822C53.345 40.8774 46.9929 43.2663 40.0819 43.2663Z" fill="#F1CB86"/>
<path d="M52.2344 19.636C52.2344 19.636 48.7242 19.2871 46.3441 16.9069C43.9639 14.5268 43.615 11.0166 43.615 11.0166C43.615 11.0166 47.1252 11.3655 49.5053 13.7457C51.8856 16.1257 52.2344 19.636 52.2344 19.636Z" fill="#C8462D"/>
<path d="M47.1617 45.4252L37.8149 43.3569L21.8974 43.3311L12.4782 45.4217C11.1146 45.7244 9.87701 46.3163 8.82086 47.1218H50.819C49.7626 46.3175 48.525 45.727 47.1617 45.4252Z" fill="#F2F9FF"/>
<path d="M9.00201 51.4956C10.8182 53.2938 12.8672 54.8574 15.1007 56.1359H44.2246C46.4576 54.8589 48.5101 53.2966 50.3302 51.4956H9.00201Z" fill="#F2F9FF"/>
<path d="M14.9834 56.0713C19.3024 58.5699 24.3171 59.9999 29.6657 59.9999C34.9903 59.9999 40.0093 58.5747 44.3412 56.0713H14.9834Z" fill="#098DB7"/>
<path d="M50.7752 47.0864H8.86405C8.09424 47.6663 7.42065 48.3602 6.86493 49.1403C7.55875 49.9942 8.29951 50.8083 9.08345 51.5789H50.2467C51.0923 50.7485 51.8881 49.8667 52.6292 48.9384C52.1025 48.24 51.479 47.6156 50.7752 47.0864Z" fill="#098DB7"/>
<path d="M29.8562 51.0651C27.0849 51.0651 24.8384 48.8186 24.8384 46.0473V34.8081H34.874V46.0473C34.874 48.8186 32.6275 51.0651 29.8562 51.0651Z" fill="#FF965A"/>
<path d="M29.8562 54.0062C34.2447 54.0062 37.8149 50.4359 37.8149 46.0475V43.3574L34.874 42.7066V46.0475C34.874 48.8188 32.6275 51.0653 29.8562 51.0653C27.0849 51.0653 24.8384 48.8188 24.8384 46.0475V42.6787L21.8975 43.3315V46.0476C21.8975 50.4361 25.4677 54.0062 29.8562 54.0062Z" fill="#54B5B7"/>
<path d="M43.4685 17.2027C43.4685 12.6234 40.5308 8.43604 35.9516 8.43604H23.7608C22.4541 8.43604 21.2574 8.77801 20.2134 9.37172V33.5754C20.2134 38.8582 24.4624 43.1815 29.745 43.2215C29.7821 43.2217 29.8192 43.2219 29.8562 43.2219C37.724 43.2219 44.1021 36.8439 44.1021 28.9761V24.4787L43.4685 17.2027Z" fill="#FFBE82"/>
<path d="M43.4047 14.7596C42.9589 10.6524 40.1442 8.43604 35.9516 8.43604H23.7608C22.4541 8.43604 21.2574 8.77801 20.2134 9.37172V16.0537L43.4047 14.7596Z" fill="#FF965A"/>
<path d="M44.1021 27.0687V18.6011C45.9467 18.6011 47.4422 20.0965 47.4422 21.9413V23.7285C47.4421 25.5733 45.9467 27.0687 44.1021 27.0687Z" fill="#FF965A"/>
<path d="M12.1292 23.7285C12.1292 25.5732 13.6246 27.0687 15.4694 27.0687V18.6011C13.6247 18.6011 12.1292 20.0965 12.1292 21.9413V23.7285Z" fill="#FF965A"/>
<path d="M23.7009 23.6528V24.6575C23.7009 25.3127 24.2322 25.8439 24.8874 25.8439C25.5427 25.8439 26.0739 25.3127 26.0739 24.6575V23.6528H23.7009Z" fill="#FF965A"/>
<path d="M33.3687 23.6528V24.6575C33.3687 25.3127 33.8999 25.8439 34.5551 25.8439C35.2104 25.8439 35.7416 25.3127 35.7416 24.6575V23.6528H33.3687Z" fill="#FF965A"/>
<path d="M30.6284 43.2011C24.6391 41.4617 20.261 35.9345 20.261 29.3841C20.2965 28.5747 20.261 20.7312 20.261 17.7517C20.261 13.1724 23.9732 9.46026 28.5524 9.46026H38.9003C37.99 9.10676 36.9975 8.91113 35.9515 8.91113H23.7607C19.1815 8.91113 15.7832 12.3094 15.7832 16.8887L15.4693 24.4785V28.835C15.4693 37.0575 22.3587 43.6391 30.6284 43.2011Z" fill="#FF965A"/>
<path d="M24.8875 24.8934C24.2323 24.8934 23.701 24.3621 23.701 23.7069V22.1807L24.1384 21.5184L23.701 20.8561V20.4619C23.701 19.8066 24.2323 19.2754 24.8875 19.2754C25.5428 19.2754 26.074 19.8066 26.074 20.4619V23.7069C26.074 24.3621 25.5428 24.8934 24.8875 24.8934Z" fill="#21386B"/>
<path d="M34.5553 24.8934C33.9 24.8934 33.3688 24.3621 33.3688 23.7069V22.1807L33.8061 21.5184L33.3688 20.8561V20.4619C33.3688 19.8066 33.9 19.2754 34.5553 19.2754C35.2105 19.2754 35.7418 19.8066 35.7418 20.4619V23.7069C35.7418 24.3621 35.2105 24.8934 34.5553 24.8934Z" fill="#21386B"/>
<path d="M26.4507 18.6821H22.9905C22.3353 18.6821 21.804 18.1508 21.804 17.4956C21.804 16.8403 22.3353 16.3091 22.9905 16.3091H26.4507C27.1059 16.3091 27.6372 16.8403 27.6372 17.4956C27.6372 18.1508 27.1059 18.6821 26.4507 18.6821Z" fill="#783C28"/>
<path d="M36.3382 18.6821H32.878C32.2228 18.6821 31.6915 18.1508 31.6915 17.4956C31.6915 16.8403 32.2228 16.3091 32.878 16.3091H36.3382C36.9934 16.3091 37.5247 16.8403 37.5247 17.4956C37.5248 18.1508 36.9936 18.6821 36.3382 18.6821Z" fill="#783C28"/>
<path d="M34.225 31.4575H33.0032L29.7856 32.1256L26.568 31.4575H25.4873C25.1247 31.4575 24.8351 31.774 24.8835 32.1333C24.976 32.8208 25.2078 33.4641 25.5494 34.0339L32.0645 35.9647C33.5359 35.2424 34.6018 33.8208 34.829 32.1333C34.8773 31.774 34.5876 31.4575 34.225 31.4575Z" fill="#BE1423"/>
<path d="M27.9336 26.5776C27.6387 27.7554 28.1747 29.0384 29.1999 29.4251C29.4062 29.503 29.6268 29.5451 29.8562 29.5451C30.0856 29.5451 30.3062 29.503 30.5125 29.4251C31.5376 29.0384 32.0736 27.7554 31.7787 26.5776L30.8009 22.6729C30.5547 21.6898 29.1578 21.6898 28.9115 22.6729L27.9336 26.5776Z" fill="#FF965A"/>
<path d="M16.139 14.7021L15.4693 15.5885V17.2779V17.2783V24.4786C16.5231 24.4786 17.3774 23.6243 17.3774 22.5705V14.7021H16.139Z" fill="#5A2D19"/>
<path d="M42.1775 13.7178C42.1874 13.8441 42.1938 13.971 42.1938 14.099V22.5706C42.1938 23.6244 43.0481 24.4786 44.1019 24.4786V13.8173C44.1019 13.7873 44.1004 13.7535 44.0979 13.7178H42.1775Z" fill="#5A2D19"/>
<path d="M24.1384 22.6178C23.8969 22.6178 23.701 22.4219 23.701 22.1804V20.8558C23.701 20.6143 23.8969 20.4185 24.1384 20.4185C24.3799 20.4185 24.5758 20.6143 24.5758 20.8558V22.1804C24.5758 22.4219 24.3799 22.6178 24.1384 22.6178Z" fill="#F2F9FF"/>
<path d="M33.806 22.6178C33.5645 22.6178 33.3687 22.4219 33.3687 22.1804V20.8558C33.3687 20.6143 33.5645 20.4185 33.806 20.4185C34.0475 20.4185 34.2434 20.6143 34.2434 20.8558V22.1804C34.2434 22.4219 34.0475 22.6178 33.806 22.6178Z" fill="#F2F9FF"/>
<path d="M25.5498 34.0335C26.4266 35.4961 28.0268 36.4753 29.856 36.4753C30.6484 36.4753 31.3975 36.2909 32.064 35.9638C31.7775 34.1669 30.2212 32.7935 28.3437 32.7935C27.2355 32.7936 26.2393 33.272 25.5498 34.0335Z" fill="#FF3C3C"/>
<path d="M32.2954 32.7935H27.2758C26.8849 32.7935 26.568 32.4766 26.568 32.0857V31.4575H33.0032V32.0857C33.0032 32.4766 32.6864 32.7935 32.2954 32.7935Z" fill="#F2F9FF"/>
<path d="M38.6794 0H25.6221H25.1326C22.3596 0.0279976 20.1265 2.32051 20.1265 5.09357V8.96548L44.102 7.99368V5.45425C44.102 2.45944 41.6742 0 38.6794 0Z" fill="#783C28"/>
<path d="M25.6182 0H20.893C17.8976 0 15.4694 2.37827 15.4694 5.37366V6.55474L20.2212 9.29886L20.1944 5.37366C20.1944 2.37827 22.6226 0 25.6182 0Z" fill="#5A2D19"/>
<path d="M44.102 13.8171L15.4692 15.5883V6.55469L44.102 7.99351V13.8171Z" fill="#D82E3D"/>
<path d="M59.692 11.0716C59.692 11.0716 56.046 13.8908 51.5483 13.8908C47.0507 13.8908 43.4047 11.0716 43.4047 11.0716C43.4047 11.0716 47.0507 8.25244 51.5483 8.25244C56.046 8.25244 59.692 11.0716 59.692 11.0716Z" fill="#D82E3D"/>
<path d="M44.102 13.0402C45.0958 13.0402 45.9014 12.2346 45.9014 11.2408C45.9014 10.247 45.0958 9.44141 44.102 9.44141C43.1082 9.44141 42.3026 10.247 42.3026 11.2408C42.3026 12.2346 43.1082 13.0402 44.102 13.0402Z" fill="#D82E3D"/>
</g>
<defs>
<clipPath id="clip0_2023_8726">
<rect width="60" height="60" fill="white" transform="translate(-0.00268555)"/>
</clipPath>
</defs>
</svg>
