<svg width="60" height="60" viewBox="0 0 60 60" fill="none" xmlns="http://www.w3.org/2000/svg">
<g clip-path="url(#clip0_2023_8603)">
<path d="M29.9985 0.000976562C18.4542 0.000976562 11.3428 6.51272 11.3232 6.52366C11.3232 6.52366 11.0275 6.89271 10.9722 7.13799C10.5977 8.80063 10.2446 10.9336 10.1373 12.7274H51.9591L52.0292 9.63836C46.549 3.71177 38.7071 0.000976562 29.9985 0.000976562Z" fill="#AFE6FF"/>
<path d="M54.5169 12.7134C53.7544 11.6341 52.9226 10.6074 52.0277 9.63954C46.4232 11.5309 40.5791 13.6993 34.2892 10.1466C24.3833 4.55151 19.5799 5.59253 11.323 6.52343C10.9882 6.79024 10.8632 7.85373 10.5402 8.13431L10.3378 16.1605H54.6081L54.5169 12.7134Z" fill="#78E9E1"/>
<path d="M54.5177 12.7131C50.4446 13.6978 45.7002 13.5618 42.4369 11.4428C37.4894 8.23013 32.4835 8.35306 25.0172 11.9009C18.6403 14.931 15.0655 10.7893 10.338 8.79834V24.7996L41.3338 30.4228L56.8023 31.0435L57.3331 17.6243C56.5478 15.8932 55.6032 14.25 54.5177 12.7131Z" fill="#5FD2D0"/>
<path d="M59.8356 26.8667L59.1212 26.1629L59.6162 25.2062C59.1888 22.5457 58.4115 20.002 57.3332 17.6241C51.908 18.789 49.4313 25.2602 40.7759 19.3551C33.9473 14.6965 28.8087 14.2738 23.5245 16.8959C19.7165 18.7856 14.6571 17.5037 10.3379 16.2609V43.1116H55.2061L59.3148 36.3806C59.3304 36.2846 59.7076 34.7748 59.8943 32.4957L59.3148 31.4472L59.9825 30.936C59.9919 30.6323 59.9971 30.32 59.9971 29.9999C59.9974 28.9417 59.9425 27.8964 59.8356 26.8667Z" fill="#54B5B7"/>
<path d="M9.21039 8.37644L9.52179 10.4466L10.8887 9.04218C10.9984 8.19115 11.1437 7.35131 11.323 6.52393C10.5975 7.1019 9.89166 7.72023 9.21039 8.37644Z" fill="#5FD2D0"/>
<path d="M10.8439 16.4063C10.7101 15.2574 10.6414 14.0886 10.6414 12.9038C10.6414 11.5948 10.7275 10.3065 10.8906 9.04209C10.3467 8.79068 9.78922 8.56375 9.21159 8.37646C9.21147 8.37658 9.21124 8.37682 9.21112 8.37694C6.74181 10.7514 4.7093 13.5136 3.18842 16.5331L6.92874 19.7807C6.92886 19.7807 11.211 19.5605 10.8439 16.4063Z" fill="#54B5B7"/>
<path d="M40.6402 42.9026C25.2573 42.9026 12.5809 31.3234 10.846 16.406C10.4791 16.3019 10.1164 16.1973 9.7599 16.0939C7.57811 15.4608 5.12244 15.9113 3.18875 16.5333C-1.60941 26.064 -0.880149 37.24 4.58811 45.9569L15.3444 54.0214L47.6852 53.5535L51.3426 51.0761C55.2426 47.1289 58.0805 42.0783 59.3149 36.3804C54.1905 40.4621 47.7008 42.9026 40.6402 42.9026Z" fill="#0F97B7"/>
<path d="M43.9382 34.3232L41.1255 30.7323C40.9485 30.5063 40.9064 30.2028 41.0152 29.9372C41.1823 29.5289 41.6488 29.3335 42.0569 29.5007L45.6645 30.9781C45.9962 31.1138 46.1549 31.4929 46.0191 31.8245L45.0557 34.177C44.8654 34.6417 44.2419 34.7233 43.9382 34.3232Z" fill="#F1D333"/>
<path d="M59.9823 30.9355C59.2713 30.221 58.2637 29.4312 58.2638 28.8274C58.2638 28.2659 59.1388 27.5407 59.8341 26.8666C59.7761 26.3085 59.7035 25.7546 59.6154 25.2061C58.662 25.3858 57.3012 26.176 56.344 26.795C55.6339 27.2543 55.2062 28.0424 55.2062 28.8881C55.2062 29.7634 55.6659 30.5727 56.415 31.0254C57.4687 31.6624 58.9689 32.4633 59.8943 32.4952C59.9342 32.0085 59.9653 31.4863 59.9823 30.9355Z" fill="#F1D333"/>
<path d="M55.6109 28.8326C55.6109 31.2131 51.2301 33.1428 47.1657 33.1428C43.1013 33.1428 37.8853 31.2131 37.8853 28.8326C37.8853 26.4521 43.1013 24.5225 47.1657 24.5225C51.2301 24.5225 55.6109 26.4523 55.6109 28.8326Z" fill="#E27A66"/>
<path d="M48.5505 31.2191L44.4515 29.218C44.1935 29.0921 44.023 28.8374 44.0048 28.5509C43.9768 28.1107 44.311 27.7312 44.7513 27.7032L48.6418 27.4559C48.9994 27.4332 49.3078 27.7047 49.3305 28.0624L49.4918 30.5993C49.5235 31.1006 48.9984 31.4463 48.5505 31.2191Z" fill="#F1D333"/>
<path d="M41.1011 28.1204C41.6706 28.1204 42.1322 27.6587 42.1322 27.0892C42.1322 26.5198 41.6706 26.0581 41.1011 26.0581C40.5316 26.0581 40.0699 26.5198 40.0699 27.0892C40.0699 27.6587 40.5316 28.1204 41.1011 28.1204Z" fill="#DD544F"/>
<path d="M41.1011 27.7879C41.6706 27.7879 42.1322 27.3262 42.1322 26.7567C42.1322 26.1872 41.6706 25.7256 41.1011 25.7256C40.5316 25.7256 40.0699 26.1872 40.0699 26.7567C40.0699 27.3262 40.5316 27.7879 41.1011 27.7879Z" fill="#F2F9FF"/>
<path d="M40.8848 27.4549C41.1509 27.4549 41.3667 27.2392 41.3667 26.9731C41.3667 26.7069 41.1509 26.4912 40.8848 26.4912C40.6187 26.4912 40.403 26.7069 40.403 26.9731C40.403 27.2392 40.6187 27.4549 40.8848 27.4549Z" fill="#21386B"/>
<path d="M22.6454 41.9166L20.2461 38.8536C20.0951 38.6609 20.0591 38.4018 20.152 38.1752C20.2945 37.827 20.6924 37.6603 21.0406 37.803L24.118 39.0632C24.401 39.1791 24.5364 39.5022 24.4205 39.7852L23.5988 41.7919C23.4362 42.1882 22.9043 42.2579 22.6454 41.9166Z" fill="#F1D333"/>
<path d="M36.8401 40.1502C36.3374 40.7889 34.4785 39.8233 33.2882 39.1037C32.6493 38.7175 32.2571 38.0271 32.2571 37.2806C32.2571 36.5592 32.622 35.8869 33.2276 35.4951C34.4101 34.7304 36.3153 33.6587 36.8401 34.3074C37.3945 34.9927 34.8655 36.3472 34.8653 37.2288C34.8652 38.1103 37.3852 39.4574 36.8401 40.1502Z" fill="#F1D333"/>
<path d="M32.6024 37.2328C32.6024 39.2635 28.8655 40.9095 25.3984 40.9095C21.9314 40.9095 17.4821 39.2633 17.4821 37.2328C17.4821 35.2022 21.9315 33.5562 25.3984 33.5562C28.8654 33.5562 32.6024 35.2023 32.6024 37.2328Z" fill="#E27A66"/>
<path d="M26.5797 39.2689L23.0831 37.5619C22.8631 37.4545 22.7176 37.2372 22.7021 36.9928C22.6782 36.6173 22.9632 36.2936 23.3388 36.2697L26.6575 36.0588C26.9625 36.0393 27.2256 36.271 27.245 36.576L27.3825 38.7401C27.4097 39.1677 26.9617 39.4627 26.5797 39.2689Z" fill="#F1D333"/>
<path d="M20.2253 36.6254C20.7111 36.6254 21.1049 36.2316 21.1049 35.7458C21.1049 35.26 20.7111 34.8662 20.2253 34.8662C19.7395 34.8662 19.3456 35.26 19.3456 35.7458C19.3456 36.2316 19.7395 36.6254 20.2253 36.6254Z" fill="#DD544F"/>
<path d="M20.2253 36.3413C20.7111 36.3413 21.1049 35.9474 21.1049 35.4616C21.1049 34.9758 20.7111 34.582 20.2253 34.582C19.7395 34.582 19.3456 34.9758 19.3456 35.4616C19.3456 35.9474 19.7395 36.3413 20.2253 36.3413Z" fill="#F2F9FF"/>
<path d="M20.0407 36.0574C20.2677 36.0574 20.4517 35.8734 20.4517 35.6464C20.4517 35.4194 20.2677 35.2354 20.0407 35.2354C19.8137 35.2354 19.6296 35.4194 19.6296 35.6464C19.6296 35.8734 19.8137 36.0574 20.0407 36.0574Z" fill="#21386B"/>
<path d="M9.45305 29.7734L6.46988 25.9649C6.28212 25.7253 6.23742 25.4033 6.35282 25.1215C6.53011 24.6886 7.0248 24.4813 7.45772 24.6586L11.2839 26.2255C11.6357 26.3695 11.804 26.7715 11.66 27.1231L10.6383 29.6182C10.4363 30.1112 9.77492 30.1978 9.45305 29.7734Z" fill="#F1D333"/>
<path d="M27.1021 27.5772C26.4771 28.3713 24.1659 27.1708 22.6859 26.276C21.8914 25.7958 21.4038 24.9374 21.4038 24.0092C21.4038 23.1123 21.8574 22.2765 22.6106 21.7893C24.0808 20.8385 26.4495 19.5061 27.1021 20.3126C27.7914 21.1647 24.6469 22.8488 24.6467 23.9449C24.6466 25.041 27.7799 26.7158 27.1021 27.5772Z" fill="#F1D333"/>
<path d="M21.8331 23.9503C21.8331 26.475 17.1869 28.5216 12.8761 28.5216C8.56534 28.5216 3.0332 26.475 3.0332 23.9503C3.0332 21.4255 8.56534 19.3789 12.8761 19.3789C17.1869 19.3789 21.8331 21.4255 21.8331 23.9503Z" fill="#E27A66"/>
<path d="M14.3447 26.4814L9.99739 24.359C9.72387 24.2255 9.54294 23.9554 9.52364 23.6515C9.494 23.1846 9.84834 22.7822 10.3153 22.7524L14.4416 22.4902C14.8208 22.4661 15.1479 22.7541 15.172 23.1333L15.3431 25.824C15.3767 26.3557 14.8197 26.7225 14.3447 26.4814Z" fill="#F1D333"/>
<path d="M6.44401 23.1945C7.04799 23.1945 7.53761 22.7049 7.53761 22.1009C7.53761 21.4969 7.04799 21.0073 6.44401 21.0073C5.84003 21.0073 5.3504 21.4969 5.3504 22.1009C5.3504 22.7049 5.84003 23.1945 6.44401 23.1945Z" fill="#DD544F"/>
<path d="M6.44401 22.842C7.04799 22.842 7.53761 22.3524 7.53761 21.7484C7.53761 21.1444 7.04799 20.6548 6.44401 20.6548C5.84003 20.6548 5.3504 21.1444 5.3504 21.7484C5.3504 22.3524 5.84003 22.842 6.44401 22.842Z" fill="#F2F9FF"/>
<path d="M6.21459 22.4889C6.49683 22.4889 6.72563 22.2601 6.72563 21.9778C6.72563 21.6956 6.49683 21.4668 6.21459 21.4668C5.93235 21.4668 5.70355 21.6956 5.70355 21.9778C5.70355 22.2601 5.93235 22.4889 6.21459 22.4889Z" fill="#21386B"/>
<path d="M37.5505 23.9502C38.6237 23.9502 39.4936 23.0802 39.4936 22.0071C39.4936 20.9339 38.6237 20.064 37.5505 20.064C36.4774 20.064 35.6074 20.9339 35.6074 22.0071C35.6074 23.0802 36.4774 23.9502 37.5505 23.9502Z" fill="#D2FFFB"/>
<path d="M42.7538 16.3542C43.786 16.3542 44.6227 15.5174 44.6227 14.4852C44.6227 13.453 43.786 12.6162 42.7538 12.6162C41.7215 12.6162 40.8848 13.453 40.8848 14.4852C40.8848 15.5174 41.7215 16.3542 42.7538 16.3542Z" fill="#D2FFFB"/>
<path d="M36.1261 7.79221C36.9753 7.79221 37.6638 7.10375 37.6638 6.2545C37.6638 5.40525 36.9753 4.7168 36.1261 4.7168C35.2768 4.7168 34.5884 5.40525 34.5884 6.2545C34.5884 7.10375 35.2768 7.79221 36.1261 7.79221Z" fill="#F2F9FF"/>
<path d="M44.6228 4.60519C45.472 4.60519 46.1605 3.91674 46.1605 3.06749C46.1605 2.21824 45.472 1.52979 44.6228 1.52979C43.7735 1.52979 43.0851 2.21824 43.0851 3.06749C43.0851 3.91674 43.7735 4.60519 44.6228 4.60519Z" fill="#D2FFFB"/>
<path d="M12.1423 4.02333C12.8309 4.02333 13.3891 3.46513 13.3891 2.77656C13.3891 2.08799 12.8309 1.52979 12.1423 1.52979C11.4537 1.52979 10.8955 2.08799 10.8955 2.77656C10.8955 3.46513 11.4537 4.02333 12.1423 4.02333Z" fill="#D2FFFB"/>
<path d="M11.1207 11.484C11.8456 11.484 12.4332 10.8963 12.4332 10.1714C12.4332 9.44653 11.8456 8.85889 11.1207 8.85889C10.3958 8.85889 9.80817 9.44653 9.80817 10.1714C9.80817 10.8963 10.3958 11.484 11.1207 11.484Z" fill="#D2FFFB"/>
<path d="M5.82842 18.4651C6.67767 18.4651 7.36612 17.7766 7.36612 16.9274C7.36612 16.0781 6.67767 15.3896 5.82842 15.3896C4.97916 15.3896 4.29071 16.0781 4.29071 16.9274C4.29071 17.7766 4.97916 18.4651 5.82842 18.4651Z" fill="#D2FFFB"/>
<path d="M18.0423 34.0349C18.8915 34.0349 19.58 33.3464 19.58 32.4972C19.58 31.6479 18.8915 30.9595 18.0423 30.9595C17.193 30.9595 16.5046 31.6479 16.5046 32.4972C16.5046 33.3464 17.193 34.0349 18.0423 34.0349Z" fill="#D2FFFB"/>
<path d="M20.9584 27.1787C21.6891 27.1787 22.2814 26.5864 22.2814 25.8557C22.2814 25.125 21.6891 24.5327 20.9584 24.5327C20.2277 24.5327 19.6354 25.125 19.6354 25.8557C19.6354 26.5864 20.2277 27.1787 20.9584 27.1787Z" fill="#D2FFFB"/>
<path d="M18.0423 18.8574C18.773 18.8574 19.3653 18.2651 19.3653 17.5344C19.3653 16.8038 18.773 16.2114 18.0423 16.2114C17.3116 16.2114 16.7193 16.8038 16.7193 17.5344C16.7193 18.2651 17.3116 18.8574 18.0423 18.8574Z" fill="#D2FFFB"/>
<path d="M22.2814 11.2691C23.0121 11.2691 23.6044 10.6767 23.6044 9.94605C23.6044 9.21538 23.0121 8.62305 22.2814 8.62305C21.5508 8.62305 20.9584 9.21538 20.9584 9.94605C20.9584 10.6767 21.5508 11.2691 22.2814 11.2691Z" fill="#D2FFFB"/>
<path d="M22.2814 5.59279C23.0121 5.59279 23.6044 5.00046 23.6044 4.26978C23.6044 3.53911 23.0121 2.94678 22.2814 2.94678C21.5507 2.94678 20.9584 3.53911 20.9584 4.26978C20.9584 5.00046 21.5507 5.59279 22.2814 5.59279Z" fill="#F2F9FF"/>
<path d="M51.3431 51.0767C48.0947 51.8059 44.4249 51.6357 40.433 49.8531C33.6743 46.8349 27.2226 39.6424 16.6542 44.9266C11.6058 47.4508 7.50234 47.0556 4.59198 45.9547C9.90107 54.3913 19.2942 59.9988 29.9985 59.9988C38.3041 59.9988 45.8809 56.6039 51.3431 51.0767Z" fill="#FFAA50"/>
</g>
<defs>
<clipPath id="clip0_2023_8603">
<rect width="60" height="60" fill="white" transform="translate(-0.00268555)"/>
</clipPath>
</defs>
</svg>
