<svg width="60" height="60" viewBox="0 0 60 60" fill="none" xmlns="http://www.w3.org/2000/svg">
<path d="M29.9413 0.117676C18.4191 0.117676 11.3213 6.61693 11.3017 6.62785C11.3017 6.62785 11.0067 6.99619 10.9515 7.241C10.5032 9.23098 10.0844 11.8981 10.0844 13.8443C10.0844 30.3805 24.0291 43.7823 40.5653 43.7823C46.9329 43.7823 54.0175 40.7304 58.7589 37.061C58.8649 36.9789 59.2015 36.4274 59.2015 36.4274C59.2224 36.2998 59.8825 33.6708 59.8825 30.0588C59.8826 13.5228 46.4775 0.117676 29.9413 0.117676Z" fill="#098DB7"/>
<path d="M40.5627 42.9372C21.5132 42.9372 7.24826 25.3383 11.3018 6.62793C11.1689 6.79184 0 14.7312 0 30.059C0 33.7825 0.681018 37.3465 1.92294 40.6351L13.3585 54.9913C17.7646 57.9277 22.9924 59.7281 28.6243 59.9719L35.8529 59.415C37.0538 59.174 38.2299 58.8608 39.376 58.4801L48.2354 53.7607C50.354 52.1244 52.2498 50.2087 53.8658 48.0654L56.9903 42.9133C57.9611 40.8723 58.709 38.7005 59.2015 36.4276C54.0869 40.5014 47.6096 42.9372 40.5627 42.9372Z" fill="#3B69AF"/>
<path d="M35.292 57.7053C34.6407 56.3162 33.6499 54.9871 33.5 51.8356C33.4143 47.0567 35.3462 47.4578 35.3143 41.4191C35.3095 41.2471 35.3135 41.0753 35.3006 40.9037C35.3054 40.9721 35.23 39.8879 35.2292 39.876C35.0145 38.1453 35.1013 38.9939 34.992 38.2897C34.6305 36.1353 33.3867 34.1732 32.8638 32.6219C32.8734 32.6558 32.722 32.1203 32.7186 32.1082C32.2989 30.3318 32.317 28.1166 32.5714 26.9985C33.2594 24.0364 34.305 23.4532 34.2088 18.7628C34.1928 17.9826 33.5876 17.3192 32.793 17.2559C31.9461 17.1884 31.2048 17.8202 31.1373 18.667L31.1297 18.7628C31.0305 19.3532 31.2141 20.6565 29.973 23.3058C29.0553 25.2688 28.1371 27.2845 28.2193 31.0928C28.24 31.6562 28.2624 32.1871 28.3629 32.9203C28.3607 32.9085 28.4367 33.4609 28.6961 34.5089L28.7719 34.7628C29.4507 36.968 29.9699 37.5965 30.0446 39.802C30.1705 45.4715 27.67 45.0025 27.1611 51.7056C26.9055 56.3988 28.1029 58.1982 28.6245 59.9695C29.0613 59.9884 29.4999 59.9999 29.9413 59.9999C30.2928 59.9999 30.6431 59.9938 30.9919 59.9817L31.5149 58.4786L33.5711 59.7809C34.3406 59.6874 35.1015 59.5647 35.8528 59.414C35.7413 59.0028 35.4829 58.1124 35.292 57.7053Z" fill="#5FD2D0"/>
<path d="M33.5414 59.654C33.5556 59.7009 33.3283 58.9472 33.3248 58.9354L33.2408 58.7035C32.6374 57.0824 31.8514 55.7151 31.6533 54.2636C31.4589 52.9218 31.6034 53.9225 31.4978 53.0487C31.4983 53.061 31.4173 51.61 31.4813 50.9602C31.8111 46.5905 33.4923 46.7149 33.605 41.3841C33.6045 41.2268 33.613 41.0696 33.6048 40.9124C33.6075 40.9755 33.5642 39.9817 33.5637 39.97L33.5156 39.4953C33.2072 36.643 32.4273 35.7505 31.6417 33.5697C31.6454 33.5816 31.4022 32.8589 31.2809 32.1638C30.2875 24.6366 33.2964 25.1894 33.2176 18.7629C33.2136 18.4691 32.9776 18.2279 32.6814 18.2213C32.3786 18.2146 32.1278 18.4546 32.1211 18.7573L32.121 18.7627C31.9955 24.4282 29.2863 24.5199 29.5947 31.0065C29.6052 31.1131 29.6359 31.8553 29.7652 32.6588C29.7545 32.6056 29.9436 33.729 30.3204 34.7406C31.0983 36.9003 31.8192 37.8444 31.7143 41.3455C31.4003 46.8511 29.2381 46.0821 29.1917 52.7009C29.1474 55.7473 30.276 57.7922 30.8562 59.5115L30.9188 59.7028C30.9137 59.6837 30.9525 59.8303 30.992 59.98C31.861 59.9499 32.7212 59.8826 33.5711 59.7795C33.5538 59.707 33.5421 59.657 33.5414 59.654Z" fill="#78E9E1"/>
<path d="M57.4681 22.2446C57.4681 23.6571 57.4612 24.8022 56.5065 24.8022C55.5518 24.8022 54.7778 23.6571 54.7778 22.2446C54.7778 20.8321 55.5518 19.687 56.5065 19.687C57.4612 19.687 57.4681 20.8321 57.4681 22.2446Z" fill="#E07F00"/>
<path d="M53.4774 24.6297C51.8749 23.0272 48.7778 23.5261 48.7778 23.5261C48.7778 23.5261 48.2789 26.6232 49.8814 28.2257C51.4839 29.8282 54.581 29.3293 54.581 29.3293C54.581 29.3293 55.0799 26.2322 53.4774 24.6297Z" fill="#DD544F"/>
<path d="M19.5676 26.6007C21.1701 24.9982 20.6712 21.9011 20.6712 21.9011C20.6712 21.9011 17.5741 21.4022 15.9716 23.0047C14.3691 24.6072 14.868 27.7043 14.868 27.7043C14.868 27.7043 17.9651 28.2032 19.5676 26.6007Z" fill="#DD544F"/>
<path d="M26.7261 19.2562H41.1463V11.1811C41.1463 8.8176 38.9878 7.04531 36.6682 7.49889C32.6652 8.28171 29.5971 10.6704 27.2958 14.3762C26.9249 14.9735 26.726 15.6621 26.726 16.3652L26.7261 19.2562Z" fill="#E27A66"/>
<path d="M55.0837 18.3099C53.5402 15.5462 50.3981 13.3727 46.4854 12.3881L39.9169 11.9707C38.115 12.2567 36.1166 12.9118 34.0989 13.7571L26.7777 17.4753C25.4036 18.2755 24.1493 19.0556 23.0956 19.7345L23.6656 20.6054C27.7368 23.4532 32.2604 25.4996 36.7841 27.5411H46.2157C47.4413 27.2437 48.654 26.8988 49.8389 26.4602C51.9554 25.6767 52.909 24.8324 52.8317 24.9311C53.3395 24.4987 53.8027 23.8671 54.2275 23.1565C55.0975 21.7017 55.3975 19.9758 55.0837 18.3099Z" fill="#EAB14D"/>
<path d="M55.0836 18.3101C54.2133 23.4399 48.1643 27.4124 40.8306 27.4124C35.6477 27.4124 27.8665 22.8777 23.0958 19.7347C22.4069 20.1785 21.803 20.5794 21.3081 20.9139C20.5665 21.4151 20.5551 22.5022 21.2855 23.0198C22.5152 23.8911 24.4241 25.1974 26.6598 26.5662L29.3845 26.5572L33.2878 30.168C36.2982 31.5625 39.3187 32.5702 41.7619 32.5702C49.6933 32.5702 56.123 27.9237 56.123 22.192C56.1229 20.8193 55.7534 19.5092 55.0836 18.3101Z" fill="#EF8E00"/>
<path d="M19.5377 17.1771C21.1402 18.7796 20.6413 21.8767 20.6413 21.8767C20.6413 21.8767 17.5442 22.3756 15.9417 20.7731C14.3392 19.1706 14.8381 16.0735 14.8381 16.0735C14.8381 16.0735 17.9352 15.5746 19.5377 17.1771Z" fill="#E27A66"/>
<path d="M44.4296 27.541C42.9405 22.539 43.5929 16.7671 46.4852 12.3887C44.4843 11.8853 42.023 11.6367 39.9169 11.9711C38.1264 14.6579 37.0522 18.0889 37.0522 21.8275C37.0522 23.8446 37.3655 25.7718 37.9348 27.5411H44.4296V27.541Z" fill="#F2F9FF"/>
<path d="M46.4851 31.9951C45.5339 30.555 44.7881 28.9033 44.3014 27.1067C41.4059 27.6261 39.509 27.4219 37.7682 26.9951C38.3599 29.0591 39.2958 30.9246 40.4916 32.4883C43.3808 32.8406 46.4168 32.0065 46.4851 31.9951Z" fill="#FFFAD7"/>
<path d="M31.1439 24.9194C30.4539 20.9646 31.4533 16.6745 34.099 13.7573C31.5726 14.8157 29.016 16.1718 26.7777 17.4752C26.2674 18.8948 25.9805 20.4616 25.9712 22.1095C27.6468 23.1325 29.3804 24.0527 31.1439 24.9194Z" fill="#F2F9FF"/>
<path d="M31.0607 24.3863C29.2954 23.5064 27.5632 22.5235 25.9839 21.564C25.9749 21.7718 25.9704 21.9811 25.9704 22.1918C25.9704 23.7382 26.2155 25.2143 26.66 26.5659C26.6607 26.5664 26.6612 26.5667 26.662 26.5671C28.7631 27.8535 31.0435 29.1276 33.288 30.1673C32.1457 28.5652 31.356 26.5779 31.0607 24.3863Z" fill="#FFFAD7"/>
<path d="M41.5524 28.2257C43.1549 26.6232 42.656 23.5261 42.656 23.5261C42.656 23.5261 39.5589 23.0272 37.9564 24.6297C36.3539 26.2322 36.8528 29.3293 36.8528 29.3293C36.8528 29.3293 39.9499 29.8282 41.5524 28.2257Z" fill="#E27A66"/>
<path d="M49.925 22.2433C51.1759 22.2433 52.19 21.2293 52.19 19.9783C52.19 18.7274 51.1759 17.7134 49.925 17.7134C48.6741 17.7134 47.6601 18.7274 47.6601 19.9783C47.6601 21.2293 48.6741 22.2433 49.925 22.2433Z" fill="#EF8E00"/>
<path d="M49.925 21.5641C51.1759 21.5641 52.19 20.5501 52.19 19.2991C52.19 18.0482 51.1759 17.0342 49.925 17.0342C48.6741 17.0342 47.6601 18.0482 47.6601 19.2991C47.6601 20.5501 48.6741 21.5641 49.925 21.5641Z" fill="#F2F9FF"/>
<path d="M50.6045 20.3491C50.9702 20.3491 51.2666 20.0527 51.2666 19.687C51.2666 19.3213 50.9702 19.0249 50.6045 19.0249C50.2389 19.0249 49.9424 19.3213 49.9424 19.687C49.9424 20.0527 50.2389 20.3491 50.6045 20.3491Z" fill="#21386B"/>
<path d="M32.8403 45.2724C32.8403 46.6849 32.8334 47.83 31.8787 47.83C30.9239 47.83 30.1499 46.6849 30.1499 45.2724C30.1499 43.8599 30.9239 42.7148 31.8787 42.7148C32.8334 42.7147 32.8403 43.8599 32.8403 45.2724Z" fill="#E07F00"/>
<path d="M28.8494 47.657C27.2469 46.0545 24.1498 46.5534 24.1498 46.5534C24.1498 46.5534 23.6509 49.6505 25.2534 51.2531C26.8559 52.8556 29.953 52.3567 29.953 52.3567C29.953 52.3567 30.4519 49.2595 28.8494 47.657Z" fill="#DD544F"/>
<path d="M12.0403 30.5263C8.03729 31.3091 4.96919 33.6978 2.66782 37.4036C2.02895 38.4324 1.89158 39.3366 1.92293 40.635L10.5187 40.6158C11.4387 40.6158 12.2167 41.3717 12.2582 42.2836H16.5183V34.2085C16.5183 31.8449 14.36 30.0726 12.0403 30.5263Z" fill="#E27A66"/>
<path d="M30.4565 41.3368C28.3294 37.5283 23.166 34.8408 17.1339 34.8408C12.7883 34.8408 6.61583 37.8838 1.92291 40.6351C2.85332 43.0986 4.09912 45.4072 5.61121 47.5115L8.66405 50.4987H20.4451C25.6058 50.4987 29.9489 46.6346 30.5493 41.5089C30.5188 41.4513 30.4883 41.3937 30.4565 41.3368Z" fill="#EAB14D"/>
<path d="M30.4557 41.3374C29.5854 46.4671 23.5363 50.4398 16.2027 50.4398C15.0126 50.4398 13.6855 50.2006 12.2893 49.794L13.0253 54.7661C13.1358 54.842 13.2468 54.9171 13.3585 54.9915C14.2267 55.238 15.0673 55.4187 15.8636 55.516L21.8577 55.0249C29.2512 53.1637 33.6595 47.0737 30.4557 41.3374Z" fill="#EF8E00"/>
<path d="M19.8976 50.8865C19.3376 49.1295 19.0279 47.219 19.0279 45.2191C19.0279 41.5049 20.0879 38.0946 21.8574 35.4159C20.378 35.0437 18.7888 34.8408 17.1339 34.8408C16.5494 34.8408 15.9316 34.8962 15.2891 34.9983C12.2412 39.5721 11.641 45.7035 13.415 50.8865H19.8976Z" fill="#F2F9FF"/>
<path d="M17.79 55.5859C17.9698 55.58 18.1488 55.5718 18.3268 55.5612C18.3556 55.5595 18.3843 55.5576 18.4131 55.5557C18.7897 55.5316 19.1624 55.4972 19.5302 55.4525C19.5471 55.4505 19.564 55.4485 19.5808 55.4464C19.7666 55.4233 19.9515 55.3977 20.1349 55.3695C20.1461 55.3677 20.1573 55.366 20.1686 55.3642C20.5504 55.3048 20.9268 55.2346 21.2967 55.1537C21.2969 55.1536 21.2973 55.1536 21.2975 55.1534C21.4856 55.1123 21.6722 55.0684 21.857 55.0219C20.9058 53.5818 20.16 51.9301 19.6733 50.1335C18.5617 50.3329 17.3994 50.4394 16.2026 50.4394C15.257 50.4394 14.2247 50.2879 13.1401 50.022C13.7318 52.0859 14.6677 53.9514 15.8635 55.5152C16.0786 55.5414 16.2905 55.5615 16.4989 55.5753C16.5028 55.5756 16.5067 55.576 16.5104 55.5763C16.6051 55.5824 16.6988 55.5868 16.792 55.5902C16.8033 55.5907 16.8149 55.5915 16.8263 55.5919C16.9297 55.5954 17.0322 55.5972 17.1338 55.5972C17.3208 55.5972 17.5068 55.5938 17.6922 55.5886C17.7249 55.5876 17.7575 55.5869 17.79 55.5859Z" fill="#FFFAD7"/>
<path d="M16.9246 51.253C18.5271 49.6505 18.0282 46.5534 18.0282 46.5534C18.0282 46.5534 14.9311 46.0545 13.3286 47.657C11.726 49.2595 12.225 52.3567 12.225 52.3567C12.225 52.3567 15.3221 52.8556 16.9246 51.253Z" fill="#E27A66"/>
<path d="M25.2972 45.2707C26.5481 45.2707 27.5622 44.2566 27.5622 43.0057C27.5622 41.7548 26.5481 40.7407 25.2972 40.7407C24.0463 40.7407 23.0322 41.7548 23.0322 43.0057C23.0322 44.2566 24.0463 45.2707 25.2972 45.2707Z" fill="#EF8E00"/>
<path d="M25.2972 44.5915C26.5481 44.5915 27.5622 43.5774 27.5622 42.3265C27.5622 41.0756 26.5481 40.0615 25.2972 40.0615C24.0463 40.0615 23.0322 41.0756 23.0322 42.3265C23.0322 43.5774 24.0463 44.5915 25.2972 44.5915Z" fill="#F2F9FF"/>
<path d="M25.9767 43.3765C26.3424 43.3765 26.6388 43.08 26.6388 42.7144C26.6388 42.3487 26.3424 42.0522 25.9767 42.0522C25.611 42.0522 25.3146 42.3487 25.3146 42.7144C25.3146 43.08 25.611 43.3765 25.9767 43.3765Z" fill="#21386B"/>
<path d="M40.8696 50.4355L40.8701 50.4346L40.8696 50.4355Z" fill="#5FD2D0"/>
<path d="M49.4773 44.2197C48.8149 39.5112 45.3229 36.3422 47.4123 30.5357C48.571 27.3157 48.611 25.9697 48.4996 23.2242C47.8107 16.6074 45.7598 17.6232 45.6267 12.0876C45.5634 8.95135 46.5863 8.03421 47.1261 5.53898C46.1571 4.85867 45.1463 4.23413 44.0978 3.67041C43.4142 6.56826 41.8531 7.69499 41.5212 11.9194C41.5118 12.5301 41.2112 14.3865 41.8644 17.0807C42.2388 18.9069 44.3361 21.8846 42.6719 26.8825C42.2148 28.0311 41.2813 29.6297 40.8939 31.2715C40.2425 33.8258 40.1586 36.8179 40.7829 39.5225C41.3241 41.658 42.424 43.372 42.1243 46.552C41.7948 50.0494 38.4977 52.1643 39.3756 58.4786C40.2823 58.1774 41.1704 57.8341 42.0373 57.4507L43.5584 55.8291L45.1157 55.8704C46.2003 55.2318 47.2421 54.5263 48.2348 53.7596C48.6933 52.3734 49.3775 50.9508 49.6017 48.3632C49.6012 48.375 49.7823 46.7944 49.4773 44.2197Z" fill="#5FD2D0"/>
<path d="M46.5799 50.7736C47.3722 48.5291 47.2949 44.4945 46.7754 42.489C46.4172 41.1068 44.8577 38.8761 44.7317 35.8837C44.5188 30.8294 46.7204 29.8418 46.839 24.2192C46.8201 18.6051 44.7931 16.4005 44.35 13.7461C43.7718 10.2824 45.4807 7.92619 46.15 4.88099C45.7943 4.65155 45.4329 4.43046 45.0672 4.21582C44.4479 7.07292 43.3582 7.42764 42.843 11.9736C42.2763 16.9734 44.0129 17.9353 44.6992 20.8525C44.9425 22.142 44.9724 25.1636 44.63 26.6469C44.2156 28.6719 42.4837 31.5324 42.4205 35.059C42.3758 37.5545 44.0314 41.9572 44.1525 42.5379C45.5945 49.4549 42.3972 51.4017 42.0698 56.2351C42.0271 57.2586 42.0175 57.2795 42.0374 57.4506C43.0965 56.9821 44.1242 56.4543 45.1159 55.8704C45.2973 53.4379 46.0583 52.4417 46.5799 50.7736Z" fill="#78E9E1"/>
<path d="M12.1489 44.6259C12.1645 44.6608 11.919 44.1123 11.9138 44.1008C11.0091 42.1213 10.4358 41.8267 9.95448 39.4221C9.95589 39.4325 9.88849 39.0092 9.82098 38.3316C9.60329 35.2087 10.265 34.725 10.836 32.1786C11.4764 28.7911 10.9632 26.8811 10.8373 25.7764C10.2677 22.7055 8.58552 21.0376 7.97495 18.4949C7.12286 14.9465 8.26626 12.3355 8.74427 8.92334C7.16208 10.5269 5.1135 12.9659 3.39617 16.2263C3.34321 17.9826 3.57922 19.976 4.39891 22.0201C5.02896 23.6299 6.24869 25.6837 5.66795 29.4578C5.44098 30.4772 5.50098 30.5437 4.80892 32.1813C3.7908 34.606 3.43386 36.2595 3.50149 39.5883C3.63898 41.4199 3.64838 42.1288 4.50188 44.5744C5.46916 46.8662 5.44298 46.9485 5.51354 47.1265C5.49229 47.0461 5.54337 47.1936 5.61147 47.5114C6.41507 48.6297 7.29382 49.6903 8.24043 50.6858L9.54857 50.5941L10.7817 53.0662C11.5018 53.6665 12.2506 54.2337 13.0256 54.7653C13.4587 52.8267 13.8891 49.1084 12.1489 44.6259Z" fill="#5FD2D0"/>
<path d="M7.76419 17.4581C6.71836 11.6473 9.29989 11.8925 8.82071 5.26601C8.76447 4.48765 8.12572 3.85642 7.32905 3.83411C6.47977 3.81039 5.77222 4.47967 5.7485 5.32882L5.7458 5.42499L5.72302 6.24162C5.63472 7.87407 5.3346 8.76984 4.82525 10.0216C4.82325 10.0305 3.19597 13.2407 3.40885 17.4581H7.76419Z" fill="#5FD2D0"/>
<path d="M10.2664 46.1369C9.7166 44.4981 7.96252 41.3728 7.8842 39.646C7.74987 36.6857 9.56068 33.5983 9.38619 27.8882C9.09524 22.6159 7.05066 21.1321 6.58886 18.8002C5.22471 11.911 8.23762 11.6721 7.83077 5.31706C7.81163 5.02387 7.56342 4.79526 7.26741 4.80395C6.96471 4.81287 6.72659 5.06556 6.73551 5.36826L6.73563 5.37366C6.76991 6.53385 6.7112 7.68313 6.43586 8.77452C5.96749 10.8432 4.13872 13.6173 4.82138 17.4581C5.3824 20.6149 7.86682 24.909 7.37801 30.0263C7.04408 32.1462 5.3022 36.3691 5.59363 39.8943C5.73265 41.5755 7.11195 44.8481 7.64948 46.3213C8.13312 47.6465 8.23539 50.0723 8.23962 50.6862C9.03981 51.5278 9.88897 52.3221 10.7816 53.0663C11.0789 51.3162 10.8188 47.7838 10.2664 46.1369Z" fill="#78E9E1"/>
<path d="M46.3377 7.12181C46.5053 6.64087 47.0523 5.61054 47.1262 5.53903C47.3574 4.5188 47.5395 3.27066 47.5033 1.51199C47.4873 0.731755 46.8821 0.0683495 46.0875 0.00494436C45.2406 -0.0625703 44.4993 0.56925 44.4319 1.41606L44.4243 1.51187L44.3594 2.32628C44.3043 2.84549 44.1902 3.26784 44.0979 3.67035C43.9013 4.52796 43.6578 5.22201 43.2676 6.05496C43.2668 6.05813 43.0394 6.45524 42.7466 7.15598L46.3377 7.12181Z" fill="#5FD2D0"/>
<path d="M45.4294 7.15587C45.9807 5.75509 46.5462 4.28315 46.5122 1.51188C46.5082 1.2181 46.2722 0.976927 45.9761 0.970351C45.6733 0.963659 45.4225 1.20366 45.4158 1.50648L45.4157 1.51188C45.3899 2.67231 45.2719 3.817 44.9407 4.89266C44.7403 5.60468 44.3791 6.3289 44.0338 7.15587H45.4294Z" fill="#78E9E1"/>
<path d="M58.5423 29.882C58.5263 29.1018 57.921 28.4383 57.1265 28.3751C56.2797 28.3075 55.5383 28.9394 55.4709 29.7862L55.4633 29.882C55.3542 30.5028 55.567 31.7342 54.3066 34.425C54.0216 35.0603 53.5087 35.9383 53.0385 37.6558C52.6795 39.1245 52.5612 40.6326 52.5621 41.2044C52.5223 45.164 53.2634 46.2239 53.865 48.0645C54.2313 47.5785 54.5834 47.0809 54.9203 46.5721L54.9708 44.8055L56.0168 44.7832C56.3618 44.173 56.6864 43.5492 56.9892 42.9126C56.9306 42.6325 56.8734 42.3102 56.8249 41.944C56.4457 38.7987 57.0952 37.2947 57.6271 35.7999C58.8675 32.3258 58.4947 30.5253 58.5423 29.882Z" fill="#5FD2D0"/>
<path d="M57.551 29.882C57.5471 29.5882 57.311 29.347 57.0149 29.3405C56.7121 29.3338 56.4613 29.5738 56.4546 29.8766L56.4545 29.882C56.3294 35.5273 53.4538 35.6901 53.9282 42.1258C54.0923 44.3539 54.7933 46.2393 54.9202 46.5721C55.3093 45.9847 55.6794 45.3834 56.0274 44.7673C55.9501 44.5542 55.5849 43.4544 55.4498 42.0303C54.9525 35.9818 57.6229 35.743 57.551 29.882Z" fill="#78E9E1"/>
</svg>
