<svg width="60" height="66" viewBox="0 0 60 66" fill="none" xmlns="http://www.w3.org/2000/svg">
<path id="Icon" d="M57.75 26.8337H2.25M42.3333 2.16699V14.5003M17.6667 2.16699V14.5003M25.375 39.167L30 36.0837V51.5003M26.1458 51.5003H33.8542M17.05 63.8337H42.95C48.1305 63.8337 50.7207 63.8337 52.6994 62.8255C54.4399 61.9386 55.855 60.5236 56.7418 58.7831C57.75 56.8044 57.75 54.2141 57.75 49.0337V23.1337C57.75 17.9532 57.75 15.3629 56.7418 13.3842C55.855 11.6437 54.4399 10.2287 52.6994 9.34185C50.7207 8.33366 48.1305 8.33366 42.95 8.33366H17.05C11.8695 8.33366 9.27927 8.33366 7.30059 9.34185C5.56009 10.2287 4.14502 11.6437 3.25819 13.3842C2.25 15.3629 2.25 17.9532 2.25 23.1337V49.0337C2.25 54.2141 2.25 56.8044 3.25819 58.7831C4.14502 60.5236 5.56009 61.9386 7.30059 62.8255C9.27927 63.8337 11.8695 63.8337 17.05 63.8337Z" stroke="#1C486B" stroke-width="4" stroke-linecap="round" stroke-linejoin="round"/>
</svg>
