<svg width="53" height="53" viewBox="0 0 53 53" fill="none" xmlns="http://www.w3.org/2000/svg">
<circle cx="26.1658" cy="26.1658" r="26.1658" fill="white"/>
<path d="M37.5391 15.3359H14.4609C13.1057 15.3359 12 16.4404 12 17.7969V34.2031C12 35.555 13.1007 36.6641 14.4609 36.6641H37.5391C38.8909 36.6641 40 35.5633 40 34.2031V17.7969C40 16.445 38.8993 15.3359 37.5391 15.3359ZM37.1992 16.9766L26.0522 28.1237L14.8087 16.9766H37.1992ZM13.6406 33.8634V18.1288L21.5418 25.9622L13.6406 33.8634ZM14.8007 35.0234L22.7069 27.1173L25.4772 29.8638C25.7979 30.1817 26.3154 30.1807 26.6348 29.8613L29.3359 27.1601L37.1993 35.0234H14.8007ZM38.3594 33.8633L30.496 26L38.3594 18.1366V33.8633Z" fill="#0171C0"/>
</svg>
