<svg width="20" height="20" viewBox="0 0 20 20" fill="none" xmlns="http://www.w3.org/2000/svg">
<path fill-rule="evenodd" clip-rule="evenodd" d="M19.7012 10.0257C19.7032 4.89864 15.3877 0.739734 10.0634 0.737654C4.73911 0.735573 0.420373 4.89111 0.41837 10.0182C0.416559 14.6521 3.9402 18.4944 8.54973 19.1934L8.55226 12.706L6.1036 12.705L6.10465 10.0204L8.55331 10.0214L8.55411 7.97594C8.55502 5.64947 9.99528 4.3639 12.1973 4.36476C13.2523 4.36517 14.3558 4.54715 14.3558 4.54715L14.3549 6.83217L13.1385 6.83169C11.9415 6.83122 11.5668 7.54647 11.5665 8.28175L11.5658 10.0226L14.2396 10.0236L13.8116 12.708L11.5652 12.7071L11.5627 19.1954C16.1727 18.5005 19.6994 14.6609 19.7012 10.0257Z" fill="#0052B4"/>
</svg>
