<svg width="26" height="22" viewBox="0 0 26 22" fill="none" xmlns="http://www.w3.org/2000/svg">
<path id="Icon" d="M16.5 1.4578C15.3952 1.16035 14.2194 1 13 1C6.55672 1 1.33337 5.47715 1.33337 11C1.33337 16.5228 6.55672 21 13 21C19.4434 21 24.6667 16.5228 24.6667 11C24.6667 9.28467 24.1628 7.67022 23.275 6.25945M18.8334 4.75H18.8392M11.2501 20.8883L11.2502 18.6849C11.2502 18.5656 11.3 18.4502 11.3907 18.3596L14.2907 15.4594C14.5291 15.2211 14.4552 14.8556 14.1373 14.6999L10.805 13.0677C10.7145 13.0234 10.6394 12.9591 10.5878 12.8814L8.41558 9.61863C8.30253 9.44882 8.08438 9.35107 7.85718 9.36841L1.40825 9.86074M23.5 5C23.5 7.20914 21.1667 9 18.8334 11C16.5 9 14.1667 7.20914 14.1667 5C14.1667 2.79086 16.256 1 18.8334 1C21.4107 1 23.5 2.79086 23.5 5ZM19.125 4.75C19.125 4.88807 18.9945 5 18.8334 5C18.6723 5 18.5417 4.88807 18.5417 4.75C18.5417 4.61193 18.6723 4.5 18.8334 4.5C18.9945 4.5 19.125 4.61193 19.125 4.75Z" stroke="#1C486B" stroke-width="2" stroke-linecap="round" stroke-linejoin="round"/>
</svg>
