<svg width="20" height="20" viewBox="0 0 20 20" fill="none" xmlns="http://www.w3.org/2000/svg">
<path d="M17.8071 14.204C17.7941 15.2685 17.376 16.2846 16.6441 17.0306C15.9123 17.7765 14.9261 18.1916 13.901 18.1852L6.16466 18.1129C5.13963 18.1002 4.16138 17.6667 3.44358 16.9072C2.72578 16.1477 2.32675 15.1239 2.33363 14.0594L2.40872 6.02553C2.42173 4.96106 2.83982 3.9449 3.57169 3.19896C4.30357 2.45301 5.28974 2.03792 6.31484 2.04432L14.0512 2.11662C15.0762 2.12938 16.0544 2.56284 16.7722 3.32233C17.49 4.08181 17.8891 5.10562 17.8822 6.17014L17.8071 14.204ZM19.3543 14.2185L19.4294 6.1846C19.4583 3.09131 17.0449 0.537771 14.0662 0.509932L6.32985 0.437629C3.35113 0.409791 0.890445 2.91777 0.861536 6.01107L0.786452 14.0449C0.757543 17.1382 3.17092 19.6918 6.14965 19.7196L13.886 19.7919C16.8647 19.8198 19.3254 17.3118 19.3543 14.2185Z" fill="#EC008C"/>
<path d="M13.9265 15.3729C13.9287 15.1346 13.9989 14.9022 14.1283 14.7052C14.2577 14.5082 14.4404 14.3555 14.6533 14.2662C14.8662 14.177 15.0997 14.1553 15.3244 14.2039C15.5491 14.2525 15.7548 14.3692 15.9155 14.5393C16.0762 14.7093 16.1848 14.9251 16.2274 15.1593C16.2699 15.3935 16.2447 15.6356 16.1548 15.855C16.0649 16.0743 15.9144 16.2612 15.7223 16.3918C15.5303 16.5224 15.3052 16.591 15.0757 16.5889C14.9232 16.5878 14.7724 16.5554 14.6321 16.4937C14.4917 16.4319 14.3644 16.342 14.2577 16.229C14.1509 16.116 14.0667 15.9822 14.0098 15.8353C13.953 15.6884 13.9247 15.5313 13.9265 15.3729ZM13.2019 10.1436C13.196 10.7793 13.0086 11.3989 12.6636 11.9242C12.3186 12.4496 11.8315 12.857 11.2637 13.0949C10.6959 13.3329 10.0731 13.3907 9.4739 13.2611C8.87473 13.1315 8.32615 12.8203 7.89754 12.3668C7.46893 11.9133 7.17953 11.3379 7.06594 10.7133C6.95236 10.0888 7.01968 9.44317 7.25941 8.85811C7.49913 8.27306 7.90049 7.77483 8.41272 7.42645C8.92496 7.07807 9.52506 6.89518 10.1372 6.9009C10.9577 6.90948 11.7412 7.25572 12.3157 7.86365C12.8903 8.47158 13.209 9.29154 13.2019 10.1436ZM14.7491 10.1581C14.758 9.20468 14.4944 8.27015 13.9918 7.47265C13.4891 6.67516 12.7699 6.05053 11.9251 5.67775C11.0803 5.30497 10.1479 5.20079 9.2457 5.37837C8.34351 5.55596 7.5121 6.00733 6.85661 6.67542C6.20112 7.34351 5.75099 8.19831 5.56314 9.13172C5.37529 10.0651 5.45816 11.0352 5.80126 11.9193C6.14437 12.8035 6.73231 13.5619 7.49072 14.0987C8.24914 14.6355 9.14397 14.9266 10.0621 14.9352C11.2932 14.9467 12.4786 14.4499 13.3576 13.554C14.2366 12.6581 14.7371 11.4366 14.7491 10.1581Z" fill="#EC008C"/>
</svg>
