<svg width="53" height="53" viewBox="0 0 53 53" fill="none" xmlns="http://www.w3.org/2000/svg">
<circle cx="26.1658" cy="26.4383" r="26.1658" fill="white"/>
<path d="M34.9783 24.0468C34.9783 32.3532 25.7489 38.8138 25.7489 38.8138C25.7489 38.8138 16.5195 32.3532 16.5195 24.0468C16.5195 21.599 17.4919 19.2515 19.2228 17.5206C20.9536 15.7898 23.3011 14.8174 25.7489 14.8174C28.1967 14.8174 30.5442 15.7898 32.2751 17.5206C34.0059 19.2515 34.9783 21.599 34.9783 24.0468Z" stroke="#0171C0" stroke-width="2" stroke-linecap="round" stroke-linejoin="round"/>
<path d="M25.6918 27.3835C27.7307 27.3835 29.3835 25.7307 29.3835 23.6918C29.3835 21.6529 27.7307 20 25.6918 20C23.6529 20 22 21.6529 22 23.6918C22 25.7307 23.6529 27.3835 25.6918 27.3835Z" stroke="#0171C0" stroke-width="2" stroke-linecap="round" stroke-linejoin="round"/>
</svg>
