<svg width="29" height="29" viewBox="0 0 29 29" fill="none" xmlns="http://www.w3.org/2000/svg">
<g id="Icon">
<circle id="Icon_2" cx="14.2324" cy="14.5" r="13.7324" stroke="white"/>
<path id="Icon_3" d="M12.3607 14.6873C12.8518 15.7016 13.672 16.5196 14.6875 17.0082C14.7624 17.0436 14.8452 17.059 14.9279 17.0527C15.0105 17.0464 15.0901 17.0187 15.1588 16.9724L16.6504 15.976C16.7163 15.9313 16.7924 15.904 16.8717 15.8967C16.951 15.8894 17.0308 15.9023 17.1038 15.9342L19.896 17.1334C19.9914 17.1732 20.0711 17.2432 20.1229 17.3326C20.1746 17.4221 20.1955 17.5261 20.1824 17.6286C20.0939 18.3194 19.7567 18.9542 19.234 19.4143C18.7113 19.8744 18.0388 20.1283 17.3425 20.1285C15.1905 20.1285 13.1266 19.2736 11.6049 17.7519C10.0833 16.2303 9.22839 14.1664 9.22839 12.0144C9.22855 11.3181 9.48244 10.6456 9.94257 10.1229C10.4027 9.60016 11.0375 9.26301 11.7282 9.17451C11.8308 9.16134 11.9348 9.18224 12.0243 9.23399C12.1137 9.28573 12.1837 9.36546 12.2234 9.46089L13.4226 12.259C13.4538 12.3308 13.4669 12.4092 13.4606 12.4873C13.4544 12.5653 13.4291 12.6406 13.3868 12.7065L12.3905 14.2219C12.3461 14.2905 12.3201 14.3692 12.3149 14.4507C12.3097 14.5322 12.3254 14.6137 12.3607 14.6873V14.6873Z" stroke="white" stroke-linecap="round" stroke-linejoin="round"/>
</g>
</svg>
