<svg width="53" height="53" viewBox="0 0 53 53" fill="none" xmlns="http://www.w3.org/2000/svg">
<circle cx="26.1658" cy="26.7723" r="26.1658" fill="white"/>
<path d="M22.6124 26.1894C23.6502 28.3325 25.3831 30.061 27.5288 31.0932C27.6871 31.1682 27.8621 31.2006 28.0368 31.1874C28.2114 31.1741 28.3795 31.1156 28.5247 31.0176L31.6762 28.9124C31.8155 28.8179 31.9764 28.7603 32.1439 28.7449C32.3114 28.7294 32.4802 28.7567 32.6343 28.8241L38.534 31.358C38.7356 31.4419 38.9041 31.5898 39.0134 31.7788C39.1228 31.9679 39.1669 32.1877 39.1391 32.4043C38.9521 33.8638 38.2397 35.2051 37.1353 36.1773C36.0308 37.1495 34.61 37.6859 33.1386 37.6863C28.5916 37.6863 24.2308 35.88 21.0156 32.6648C17.8004 29.4496 15.9941 25.0888 15.9941 20.5419C15.9945 19.0705 16.5309 17.6496 17.5031 16.5451C18.4753 15.4407 19.8167 14.7283 21.2761 14.5413C21.4928 14.5135 21.7125 14.5577 21.9016 14.667C22.0906 14.7763 22.2385 14.9448 22.3224 15.1464L24.8563 21.0587C24.9222 21.2104 24.9497 21.376 24.9366 21.5409C24.9234 21.7058 24.8698 21.8649 24.7807 22.0042L22.6754 25.2062C22.5817 25.351 22.5267 25.5174 22.5156 25.6896C22.5046 25.8617 22.5379 26.0338 22.6124 26.1894V26.1894Z" stroke="#0171C0" stroke-width="2" stroke-linecap="round" stroke-linejoin="round"/>
</svg>
