<svg width="20" height="21" viewBox="0 0 20 21" fill="none" xmlns="http://www.w3.org/2000/svg">
<path d="M10.0921 1.01827C4.68227 0.977172 0.262467 5.32838 0.221386 10.7358C0.190932 14.7444 2.57886 18.2074 6.01793 19.7505C5.99687 19.0684 6.02498 18.2467 6.20556 17.5049C6.39966 16.7108 7.50564 12.177 7.50564 12.177C7.50564 12.177 7.19551 11.5495 7.20252 10.6271C7.21354 9.1758 8.06147 8.09807 9.11108 8.10604C10.0032 8.11282 10.4268 8.7849 10.4207 9.58487C10.4139 10.481 9.83079 11.8143 9.52835 13.0536C9.27553 14.0921 10.0345 14.9416 11.0622 14.9494C12.9165 14.9635 14.1854 12.5906 14.2069 9.76665C14.2232 7.62028 12.7878 6.00497 10.1594 5.985C7.18985 5.96244 5.3187 8.16467 5.2999 10.6389C5.29342 11.4913 5.5425 12.0965 5.93258 12.5629C6.11026 12.7784 6.13584 12.8661 6.06838 13.1104C6.01891 13.2892 5.91066 13.7212 5.86122 13.8957C5.79373 14.1444 5.59189 14.2303 5.36955 14.1368C4.00493 13.5668 3.37778 12.0669 3.3906 10.3796C3.41172 7.59935 5.78556 4.2818 10.4388 4.31715C14.1781 4.34555 16.6197 7.07017 16.5977 9.97279C16.5685 13.8153 14.4081 16.6667 11.2593 16.6428C10.2009 16.6347 9.21252 16.0545 8.87631 15.405C8.87631 15.405 8.29063 17.6563 8.16486 18.0925C7.95356 18.8472 7.54113 19.596 7.16491 20.1833C8.06463 20.4561 8.99879 20.5986 9.93894 20.6066C15.3488 20.6477 19.7686 16.2965 19.8097 10.889C19.8508 5.48157 15.502 1.05937 10.0921 1.01827Z" fill="#AD0669"/>
</svg>
