<svg width="23" height="23" viewBox="0 0 23 23" fill="none" xmlns="http://www.w3.org/2000/svg">
<g id="tik-tok_3046121 1" clip-path="url(#clip0_4734_801)">
<g id="Group">
<g id="Group_2">
<path id="Vector" d="M8.47387 11.954C6.72934 11.954 5.31996 13.3634 5.34575 15.0907C5.36293 16.1993 5.97309 17.1618 6.87114 17.6989C6.56606 17.2306 6.38559 16.6763 6.377 16.079C6.35121 14.3517 7.76059 12.9423 9.50512 12.9423C9.84887 12.9423 10.1797 12.9981 10.4891 13.097L10.4891 9.63799C10.1668 9.59072 9.83598 9.56494 9.50512 9.56494C9.48793 9.56494 9.47504 9.56494 9.45786 9.56494L9.45786 12.1087C9.14848 12.0099 8.81762 11.954 8.47387 11.954Z" fill="#F00044"/>
<path id="Vector_2" d="M16.0149 1.58154L15.9891 1.58154L15.0953 1.58154C15.3531 2.8749 16.0793 4.00068 17.0934 4.76553C16.4274 3.88467 16.0235 2.78467 16.0149 1.58154Z" fill="#F00044"/>
<path id="Vector_3" d="M21.2743 6.84502C20.9348 6.84502 20.6082 6.81064 20.286 6.75049L20.286 9.22978C19.1172 9.22978 17.9828 9.00205 16.9172 8.54658C16.2297 8.25439 15.5895 7.88057 15.0008 7.42939L15.018 15.0735C15.0094 16.7923 14.3305 18.4036 13.1016 19.6196C12.1004 20.6079 10.8328 21.2396 9.45784 21.4415C9.13558 21.4888 8.80472 21.5145 8.47386 21.5145C7.00433 21.5145 5.60355 21.0376 4.46487 20.1567C4.59378 20.3114 4.73128 20.4618 4.88167 20.6079C6.11917 21.8282 7.76058 22.5028 9.50941 22.5028C9.84026 22.5028 10.1711 22.4771 10.4934 22.4298C11.8684 22.2278 13.136 21.5962 14.1371 20.6079C15.366 19.3919 16.045 17.7806 16.0535 16.0618L15.9891 8.41768C16.5735 8.86885 17.2137 9.24697 17.9055 9.53486C18.9754 9.98604 20.1098 10.2181 21.2743 10.2181" fill="#F00044"/>
</g>
<path id="Vector_4" d="M4.86877 11.4685C6.09338 10.2524 7.72189 9.57783 9.45783 9.56494L9.45783 8.64971C9.13557 8.60244 8.80471 8.57666 8.47385 8.57666C6.72072 8.57666 5.07502 9.25127 3.83752 10.4802C2.6215 11.6876 1.92541 13.3376 1.92971 15.0521C1.92971 16.7794 2.61291 18.3993 3.84611 19.6239C4.04377 19.8173 4.24572 19.9978 4.46057 20.161C3.48947 19.0052 2.96096 17.5614 2.95666 16.0403C2.96096 14.3259 3.65275 12.6759 4.86877 11.4685Z" fill="#08FFF9"/>
<path id="Vector_5" d="M20.286 6.75078L20.286 5.83125L20.2774 5.83125C19.0828 5.83125 17.9828 5.43594 17.0977 4.76562C17.8668 5.77969 18.9926 6.50156 20.286 6.75078Z" fill="#08FFF9"/>
<path id="Vector_6" d="M9.32894 19.1214C9.73714 19.1429 10.1282 19.087 10.4891 18.971C11.7352 18.5628 12.6332 17.4026 12.6332 16.0362L12.6375 10.9229L12.6375 1.58154L15.0953 1.58154C15.0309 1.25928 14.9965 0.932715 14.9922 0.593262L11.6063 0.593262L11.6063 9.93037L11.602 15.0437C11.602 16.4101 10.7039 17.5702 9.45784 17.9784C9.09691 18.0987 8.70589 18.1546 8.29769 18.1288C7.77776 18.0987 7.29222 17.944 6.87112 17.6948C7.39964 18.5112 8.30198 19.0655 9.32894 19.1214Z" fill="#08FFF9"/>
<path id="Vector_7" d="M9.45783 21.4417C10.8328 21.2397 12.1004 20.6081 13.1016 19.6198C14.3305 18.4038 15.0094 16.7925 15.018 15.0737L15.0008 7.42959C15.5852 7.88076 16.2254 8.25889 16.9172 8.54678C17.9871 8.99795 19.1215 9.22998 20.286 9.22998L20.286 6.75068C18.9926 6.50147 17.8668 5.77959 17.0977 4.76553C16.0836 4.00068 15.3531 2.8749 15.0996 1.58154L12.6375 1.58154L12.6375 10.9187L12.6332 16.0319C12.6332 17.3983 11.7352 18.5585 10.4891 18.9667C10.1281 19.087 9.73713 19.1429 9.32893 19.1171C8.29768 19.0612 7.39963 18.5069 6.87111 17.6948C5.97307 17.162 5.36291 16.1952 5.34572 15.0866C5.31994 13.3593 6.72932 11.9499 8.47385 11.9499C8.8176 11.9499 9.14846 12.0058 9.45783 12.1046L9.45783 9.56084C7.72189 9.57373 6.09338 10.2483 4.86877 11.4644C3.65275 12.6718 2.95666 14.3218 2.96096 16.0319C2.96096 17.553 3.48947 18.9968 4.46486 20.1526C5.60783 21.0335 7.00432 21.5105 8.47385 21.5105C8.80471 21.5147 9.13557 21.489 9.45783 21.4417Z" fill="black"/>
</g>
</g>
<defs>
<clipPath id="clip0_4734_801">
<rect width="22" height="22" fill="white" transform="translate(0.649231 0.550293)"/>
</clipPath>
</defs>
</svg>
