<svg width="22" height="18" viewBox="0 0 22 18" fill="none" xmlns="http://www.w3.org/2000/svg">
<path d="M21.113 2.36767C20.3404 2.70974 19.5219 2.93724 18.6836 3.04298C19.5618 2.52057 20.2192 1.69571 20.5326 0.723119C19.7023 1.21635 18.7941 1.56466 17.847 1.75315C17.4447 1.33734 16.9621 1.00768 16.4284 0.784196C15.8948 0.560712 15.3213 0.448076 14.7428 0.453135C12.4005 0.469287 10.5178 2.35034 10.5337 4.65303C10.5343 4.97334 10.5732 5.29243 10.6496 5.60348C8.96946 5.53633 7.32184 5.1192 5.81215 4.3788C4.30245 3.6384 2.96393 2.59102 1.88221 1.30368C1.51023 1.94075 1.31618 2.66604 1.32035 3.40375C1.33032 4.84993 2.09364 6.12304 3.2381 6.8641C2.56299 6.85273 1.90059 6.67864 1.30714 6.35659L1.30749 6.40824C1.32144 8.43117 2.79644 10.104 4.73593 10.4737C4.37238 10.5733 3.99739 10.6251 3.62045 10.6277C3.35299 10.63 3.08595 10.6059 2.82323 10.5557C3.3731 12.2091 4.94853 13.4035 6.80513 13.4251C5.30472 14.598 3.4571 15.2391 1.55267 15.2476C1.21463 15.2494 0.87677 15.2316 0.540791 15.1943C2.48667 16.418 4.74321 17.0569 7.04179 17.0348C14.8477 16.9809 19.0684 10.5944 19.0303 5.08083C19.0291 4.90005 19.0231 4.71931 19.0133 4.5429C19.837 3.94842 20.548 3.21181 21.113 2.36767Z" fill="#6DB1DC"/>
</svg>
