<svg width="19" height="20" viewBox="0 0 19 20" fill="none" xmlns="http://www.w3.org/2000/svg">
<path d="M12.5619 1.45446C11.7199 0.516515 10.5439 0 9.24585 0C7.94089 0 6.76097 0.51339 5.92286 1.44553C5.07568 2.38793 4.6629 3.66873 4.75982 5.05176C4.95193 7.78031 6.96433 9.99994 9.24585 9.99994C11.5274 9.99994 13.5363 7.78076 13.7314 5.05265C13.8297 3.68212 13.4143 2.404 12.5619 1.45446ZM16.861 19.9999H1.63067C1.43132 20.0026 1.2339 19.9594 1.05277 19.8734C0.871641 19.7874 0.71136 19.6609 0.583588 19.503C0.302346 19.1561 0.188983 18.6825 0.272923 18.2035C0.638105 16.1133 1.77779 14.3575 3.56908 13.1249C5.16048 12.0307 7.17634 11.4285 9.24585 11.4285C11.3154 11.4285 13.3312 12.0312 14.9226 13.1249C16.7139 14.3571 17.8536 16.1129 18.2188 18.203C18.3027 18.682 18.1894 19.1557 17.9081 19.5026C17.7804 19.6606 17.6201 19.7872 17.439 19.8732C17.2579 19.9592 17.0604 20.0025 16.861 19.9999Z" fill="#1C486B"/>
</svg>
