<svg width="19" height="19" viewBox="0 0 19 19" fill="none" xmlns="http://www.w3.org/2000/svg">
<g id="youtube_3670147 1" clip-path="url(#clip0_4734_817)">
<g id="Layer 2">
<g id="Color">
<g id="02.YouTube">
<path id="Background" d="M9.64905 18.5508C14.6196 18.5508 18.649 14.5213 18.649 9.55078C18.649 4.58022 14.6196 0.550781 9.64905 0.550781C4.67849 0.550781 0.649048 4.58022 0.649048 9.55078C0.649048 14.5213 4.67849 18.5508 9.64905 18.5508Z" fill="#FF0000"/>
<path id="Icon" d="M12.5942 6.16504L6.70391 6.16504C6.46852 6.16504 6.23544 6.21142 6.01798 6.30154C5.80052 6.39165 5.60295 6.52374 5.43656 6.69024C5.27017 6.85674 5.13822 7.0544 5.04825 7.27191C4.95827 7.48943 4.91205 7.72254 4.9122 7.95793L4.9122 11.1435C4.91205 11.3789 4.95827 11.612 5.04825 11.8295C5.13822 12.047 5.27017 12.2447 5.43656 12.4112C5.60295 12.5777 5.80052 12.7097 6.01798 12.7999C6.23544 12.89 6.46852 12.9364 6.70391 12.9364L12.5942 12.9364C12.8296 12.9364 13.0626 12.89 13.2801 12.7999C13.4976 12.7097 13.6951 12.5777 13.8615 12.4112C14.0279 12.2447 14.1599 12.047 14.2498 11.8295C14.3398 11.612 14.386 11.3789 14.3859 11.1435L14.3859 7.95793C14.386 7.72254 14.3398 7.48943 14.2498 7.27191C14.1599 7.0544 14.0279 6.85674 13.8615 6.69024C13.6951 6.52374 13.4976 6.39165 13.2801 6.30154C13.0626 6.21142 12.8296 6.16504 12.5942 6.16504ZM8.40089 11.0025L8.40089 8.09886L10.8972 9.5507L8.40089 11.0025Z" fill="white"/>
</g>
</g>
</g>
</g>
<defs>
<clipPath id="clip0_4734_817">
<rect width="18" height="18" fill="white" transform="translate(0.649048 0.550781)"/>
</clipPath>
</defs>
</svg>
