<svg width="80" height="80" viewBox="0 0 80 80" fill="none" xmlns="http://www.w3.org/2000/svg">
<g id="cloud-sun-02">
<path id="Icon" d="M34.9998 5V10.3333M11.9998 33.3333H6.6665M18.1705 16.5046L14.3993 12.7333M51.8325 16.5046L55.6038 12.7333M63.3332 33.3333H57.9998M21.6667 33.3336C21.6667 25.9698 27.6363 20.0002 35.0001 20.0002C40.0201 20.0002 44.3922 22.7745 46.6667 26.8735M19.9998 73.3333C12.636 73.3333 6.6665 67.3638 6.6665 60C6.6665 52.6362 12.636 46.6667 19.9998 46.6667C21.5471 46.6667 23.0329 46.9302 24.4146 47.4149C26.8019 41.1319 32.8794 36.6667 39.9998 36.6667C47.1203 36.6667 53.1978 41.1319 55.5851 47.4149C56.9668 46.9302 58.4526 46.6667 59.9998 46.6667C67.3636 46.6667 73.3332 52.6362 73.3332 60C73.3332 67.3638 67.3636 73.3333 59.9998 73.3333C44.5322 73.3333 32.9305 73.3333 19.9998 73.3333Z" stroke="#08C9E1" stroke-width="5" stroke-linecap="round" stroke-linejoin="round"/>
</g>
</svg>
